<svg width="57" height="59" viewBox="0 0 57 59" fill="none" xmlns="http://www.w3.org/2000/svg">
<g id="alert-triangle">
<path id="Vector" d="M53.58 40.0708L35.3637 8.80077C34.6272 7.60803 33.6123 6.62643 32.4128 5.9465C31.2132 5.26656 29.8676 4.91016 28.5 4.91016C27.1324 4.91016 25.7868 5.26656 24.5872 5.9465C23.3877 6.62643 22.3728 7.60803 21.6362 8.80077L3.41999 40.0708C2.7765 41.1811 2.42674 42.4472 2.4059 43.7418C2.38505 45.0364 2.69385 46.3139 3.30124 47.4458C4.00348 48.7198 5.01993 49.7781 6.24672 50.5123C7.47351 51.2466 8.86664 51.6305 10.2837 51.6249H46.7162C48.124 51.6405 49.5109 51.2714 50.7368 50.5549C51.9628 49.8384 52.9844 48.7999 53.6987 47.5441C54.324 46.4004 54.6426 45.1046 54.6218 43.7907C54.6009 42.4768 54.2412 41.1925 53.58 40.0708ZM49.5425 45.1104C49.2571 45.6182 48.8428 46.0356 48.3446 46.3173C47.8465 46.5989 47.2833 46.7341 46.7162 46.7083H10.2837C9.71665 46.7341 9.15352 46.5989 8.65534 46.3173C8.15717 46.0356 7.74293 45.6182 7.45749 45.1104C7.24904 44.7366 7.1393 44.3127 7.1393 43.8812C7.1393 43.4497 7.24904 43.0257 7.45749 42.652L25.6975 11.3574C26.0253 10.9093 26.4489 10.5459 26.9351 10.2956C27.4213 10.0454 27.957 9.91516 28.5 9.91516C29.043 9.91516 29.5787 10.0454 30.0649 10.2956C30.5511 10.5459 30.9747 10.9093 31.3025 11.3574L49.5187 42.6274C49.7352 43.0019 49.8516 43.4292 49.8557 43.8656C49.8599 44.3019 49.7518 44.7316 49.5425 45.1104Z" fill="#7453FD"/>
<path id="Vector_2" d="M28.5 41.7917C29.8117 41.7917 30.875 40.691 30.875 39.3333C30.875 37.9756 29.8117 36.875 28.5 36.875C27.1883 36.875 26.125 37.9756 26.125 39.3333C26.125 40.691 27.1883 41.7917 28.5 41.7917Z" fill="#7453FD"/>
<path id="Vector_3" d="M28.5 19.6665C27.8701 19.6665 27.266 19.9255 26.8206 20.3865C26.3752 20.8476 26.125 21.4728 26.125 22.1248V31.9582C26.125 32.6102 26.3752 33.2354 26.8206 33.6965C27.266 34.1575 27.8701 34.4165 28.5 34.4165C29.1299 34.4165 29.734 34.1575 30.1794 33.6965C30.6248 33.2354 30.875 32.6102 30.875 31.9582V22.1248C30.875 21.4728 30.6248 20.8476 30.1794 20.3865C29.734 19.9255 29.1299 19.6665 28.5 19.6665Z" fill="#7453FD"/>
</g>
</svg>
