<svg width="232" height="234" viewBox="0 0 232 234" fill="none" xmlns="http://www.w3.org/2000/svg">
<rect x="8.5" y="10.5" width="223" height="223" rx="15.5" fill="#5942C2" stroke="black"/>
<rect x="0.5" y="0.5" width="223" height="223" rx="15.5" fill="white" stroke="black"/>
<path fill-rule="evenodd" clip-rule="evenodd" d="M36 28C32.6863 28 30 30.6863 30 34V82C30 85.3137 32.6863 88 36 88H84C87.3137 88 90 85.3137 90 82V34C90 30.6863 87.3137 28 84 28H36ZM58 76C49.1634 76 42 68.8366 42 60V56C42 47.1634 49.1634 40 58 40H62C70.8366 40 78 47.1634 78 56V60C78 68.8366 70.8366 76 62 76H58ZM54 58C54 61.3137 56.6863 64 60 64C63.3137 64 66 61.3137 66 58C66 54.6863 63.3137 52 60 52C56.6863 52 54 54.6863 54 58ZM144 28C140.686 28 138 30.6863 138 34V82C138 85.3137 140.686 88 144 88H192C195.314 88 198 85.3137 198 82V34C198 30.6863 195.314 28 192 28H144ZM186 60C186 68.8366 178.837 76 170 76H166C157.163 76 150 68.8366 150 60V56C150 47.1634 157.163 40 166 40H170C178.837 40 186 47.1634 186 56V60ZM162 58C162 61.3137 164.686 64 168 64C171.314 64 174 61.3137 174 58C174 54.6863 171.314 52 168 52C164.686 52 162 54.6863 162 58ZM30 142C30 138.686 32.6863 136 36 136H84C87.3137 136 90 138.686 90 142V190C90 193.314 87.3137 196 84 196H36C32.6863 196 30 193.314 30 190V142ZM58 148C49.1634 148 42 155.163 42 164V168C42 176.837 49.1634 184 58 184H62C70.8366 184 78 176.837 78 168V164C78 155.163 70.8366 148 62 148H58ZM66 166C66 169.314 63.3137 172 60 172C56.6863 172 54 169.314 54 166C54 162.686 56.6863 160 60 160C63.3137 160 66 162.686 66 166ZM108 28C104.686 28 102 30.6863 102 34V58C102 61.3137 104.686 64 108 64C111.314 64 114 66.6863 114 70C114 73.3137 111.314 76 108 76C104.686 76 102 78.6863 102 82V88C102 94.6274 107.373 100 114 100V112H84C80.6863 112 78 109.314 78 106C78 102.686 75.3137 100 72 100H66C59.3726 100 54 105.373 54 112H42V106C42 102.686 39.3137 100 36 100C32.6863 100 30 102.686 30 106C30 109.314 32.6863 112 36 112H42V118C42 121.314 44.6863 124 48 124C51.3137 124 54 121.314 54 118V112H60C63.3137 112 66 114.686 66 118C66 121.314 68.6863 124 72 124H96C99.3137 124 102 126.686 102 130C102 133.314 104.686 136 108 136H114V148C107.373 148 102 153.373 102 160V172C102 178.627 107.373 184 114 184C114 190.627 119.373 196 126 196H150C156.627 196 162 190.627 162 184V172H186V184H180C176.686 184 174 186.686 174 190C174 193.314 176.686 196 180 196C183.314 196 186 193.314 186 190V184H192C195.314 184 198 181.314 198 178C198 174.686 195.314 172 192 172H186V160H192C195.314 160 198 157.314 198 154C198 150.686 195.314 148 192 148H186V136V130C186 126.686 188.686 124 192 124C195.314 124 198 121.314 198 118V112V106C198 102.686 195.314 100 192 100C188.686 100 186 102.686 186 106C186 109.314 183.314 112 180 112C176.686 112 174 114.686 174 118V124C174 130.627 168.627 136 162 136H138V130C138 126.686 135.314 124 132 124C128.686 124 126 126.686 126 130V136H114V124V112H120C123.314 112 126 109.314 126 106C126 102.686 123.314 100 120 100H114V94C114 90.6863 116.686 88 120 88C123.314 88 126 85.3137 126 82V58C126 54.6863 123.314 52 120 52C116.686 52 114 49.3137 114 46C114 42.6863 116.686 40 120 40C123.314 40 126 37.3137 126 34C126 30.6863 123.314 28 120 28H108ZM126 148V136H138V148H126ZM126 160V166C126 169.314 123.314 172 120 172C116.686 172 114 174.686 114 178V184H138C144.627 184 150 178.627 150 172H162V160C162 153.373 156.627 148 150 148H138V160H126ZM126 160C119.373 160 114 154.627 114 148H126V160ZM138 160C144.627 160 150 165.373 150 172C143.373 172 138 166.627 138 160ZM186 148V160H180C176.686 160 174 157.314 174 154C174 150.686 176.686 148 180 148H186ZM144 112C140.686 112 138 109.314 138 106C138 102.686 140.686 100 144 100H150C156.627 100 162 105.373 162 112V118C162 121.314 159.314 124 156 124C152.686 124 150 121.314 150 118C150 114.686 147.314 112 144 112Z" fill="#5136C2"/>
</svg>
