<svg width="23" height="18" viewBox="0 0 23 18" fill="none" xmlns="http://www.w3.org/2000/svg">
<g id="content_copy_FILL0_wght400_GRAD0_opsz48 1">
<path id="Vector" d="M4.92205 16.4814C4.56992 16.4814 4.26181 16.3689 3.99771 16.1439C3.73361 15.9189 3.60156 15.6564 3.60156 15.3564V4.05019H4.92205V15.3564H15.3539V16.4814H4.92205ZM7.56304 14.2314C7.21091 14.2314 6.90279 14.1189 6.63869 13.8939C6.3746 13.6689 6.24255 13.4064 6.24255 13.1064V2.60645C6.24255 2.30645 6.3746 2.04395 6.63869 1.81895C6.90279 1.59395 7.21091 1.48145 7.56304 1.48145H17.2466C17.5988 1.48145 17.9069 1.59395 18.171 1.81895C18.4351 2.04395 18.5671 2.30645 18.5671 2.60645V13.1064C18.5671 13.4064 18.4351 13.6689 18.171 13.8939C17.9069 14.1189 17.5988 14.2314 17.2466 14.2314H7.56304ZM7.56304 13.1064H17.2466V2.60645H7.56304V13.1064Z" fill="#7453FD"/>
</g>
</svg>
