<svg width="9" height="10" viewBox="0 0 9 10" fill="none" xmlns="http://www.w3.org/2000/svg">
<path d="M3.1928 10C2.21347 10 1.43401 9.72519 0.854411 9.17557C0.284804 8.62595 0 7.85148 0 6.85217H1.5889C1.5889 7.35182 1.70882 7.76654 1.94866 8.09631C2.19849 8.42608 2.60321 8.59097 3.16282 8.59097C3.71244 8.59097 4.10217 8.43608 4.33202 8.12629C4.56186 7.80651 4.67678 7.40179 4.67678 6.91213V0H6.26568V6.91213C6.26568 7.90145 5.99087 8.66592 5.44125 9.20555C4.89163 9.73518 4.14215 10 3.1928 10Z" fill="#0F0056"/>
<rect x="2.07959" y="3.50757" width="6.6704" height="1.33408" fill="#0F0056"/>
<rect x="2.07959" y="1.28418" width="6.6704" height="1.33408" fill="#0F0056"/>
</svg>
