<svg width="24" height="24" viewBox="0 0 24 24" fill="none" xmlns="http://www.w3.org/2000/svg">
<path d="M4.5 21C4.1 21 3.75 20.8499 3.45 20.5499C3.15 20.25 3 19.9 3 19.5V14.25H4.5V19.5H19.5V4.44995H4.5V9.74995H3V4.44995C3 4.04995 3.15 3.69995 3.45 3.39995C3.75 3.09995 4.1 2.94995 4.5 2.94995H19.5C19.9 2.94995 20.25 3.09995 20.55 3.39995C20.85 3.69995 21 4.04995 21 4.44995V19.5C21 19.9 20.85 20.25 20.55 20.5499C20.25 20.8499 19.9 21 19.5 21H4.5ZM10.325 16.825L9.2 15.7L12.15 12.75H3V11.25H12.15L9.2 8.29995L10.325 7.17495L15.15 12L10.325 16.825Z" fill="#7453FD"/>
</svg>
