<svg width="30" height="25" viewBox="0 0 30 25" fill="none" xmlns="http://www.w3.org/2000/svg">
<g clip-path="url(#clip0_0_3524)">
<path d="M29.5882 17.0805V24.7375H0V0.000244141H29.5882V5.89029V17.0805Z" fill="#7EB3FF"/>
<path d="M29.5882 3.36098V4.86806H0V0.000244141H29.5882V1.1589V3.36098Z" fill="#0561FC"/>
<path d="M3.14779 1.76721H1.88867V2.94522H3.14779V1.76721Z" fill="#A1F0C4"/>
<path d="M5.66598 1.76721H4.40686V2.94522H5.66598V1.76721Z" fill="#A1F0C4"/>
<path d="M8.18429 1.76721H6.92517V2.94522H8.18429V1.76721Z" fill="#A1F0C4"/>
<path d="M18.9085 18.1414L18.0188 17.3081L21.0622 14.4599L18.0188 11.6126L18.9085 10.7793L22.8434 14.4599L18.9085 18.1414Z" fill="white"/>
<path d="M9.8798 18.1414L5.9458 14.4599L9.8798 10.7793L10.7704 11.6126L7.7261 14.4599L10.7704 17.3081L9.8798 18.1414Z" fill="white"/>
<path d="M15.609 9.64847L11.8401 18.8535L13.0159 19.2749L16.7848 10.0699L15.609 9.64847Z" fill="white"/>
</g>
<defs>
<clipPath id="clip0_0_3524">
<rect width="29.5882" height="24.7377" fill="white"/>
</clipPath>
</defs>
</svg>
