<svg width="9" height="12" viewBox="0 0 9 12" fill="none" xmlns="http://www.w3.org/2000/svg">
<path d="M3.28407 11.5382C2.27675 11.5382 1.47501 11.2555 0.878837 10.6902C0.292946 10.1248 0 9.32824 0 8.30036H1.63433C1.63433 8.8143 1.75767 9.24087 2.00436 9.58007C2.26133 9.91927 2.67763 10.0889 3.25324 10.0889C3.81857 10.0889 4.21944 9.92955 4.45586 9.6109C4.69227 9.28198 4.81048 8.86569 4.81048 8.36203V0.560425H6.4448V8.36203C6.4448 9.37963 6.16214 10.166 5.5968 10.721C5.03147 11.2658 4.26056 11.5382 3.28407 11.5382Z" fill="#0F0056"/>
<rect x="2.13904" y="4.86011" width="6.86109" height="1.37222" fill="#0F0056"/>
<rect x="2.13904" y="2.573" width="6.86109" height="1.37222" fill="#0F0056"/>
</svg>
