<svg width="84" height="24" viewBox="0 0 84 24" fill="none" xmlns="http://www.w3.org/2000/svg">
    <g clip-path="url(#clip0_1049_5751)">
    <path d="M4.36883 23.4874C7.26219 23.4874 9.362 21.2512 9.362 18.1383L9.36996 0.793801C9.36996 0.723725 9.39787 0.656519 9.44755 0.606967C9.49722 0.557416 9.5646 0.529579 9.63485 0.529579H11.9905C12.0608 0.529279 12.1282 0.501189 12.1778 0.451458C12.2275 0.401726 12.2554 0.334403 12.2554 0.264222C12.2554 0.194146 12.2275 0.12694 12.1778 0.0773889C12.1281 0.0278376 12.0607 0 11.9905 0L3.49912 0C3.42887 0 3.36149 0.0278376 3.31181 0.0773889C3.26214 0.12694 3.23423 0.194146 3.23423 0.264222C3.23408 0.299016 3.24082 0.333496 3.25407 0.365684C3.26731 0.397872 3.2868 0.427134 3.31141 0.451789C3.33602 0.476445 3.36528 0.496009 3.39749 0.509358C3.4297 0.522707 3.46424 0.529579 3.49912 0.529579H5.83427C5.90452 0.529579 5.9719 0.557416 6.02158 0.606967C6.07125 0.656519 6.09916 0.723725 6.09916 0.793801V20.4596C6.09916 22.0472 5.53072 23.0055 4.28016 23.0055C3.45706 23.0055 2.88975 22.5247 2.88975 21.7887C2.88975 21.1661 2.96934 20.7137 2.96934 20.006C2.96934 19.0444 2.49298 18.2801 1.5562 18.2801C0.592123 18.2801 -0.00360107 18.9877 -0.00360107 20.0945C-0.000190439 22.0155 1.9325 23.4874 4.36883 23.4874Z" fill="white" class="logo-1"></path>
    <path d="M21.4654 22.7265H18.771C18.7194 22.7265 18.67 22.7061 18.6335 22.6697C18.5971 22.6334 18.5766 22.584 18.5766 22.5326V0.529594H18.804L26.9861 23.5872C26.9994 23.625 27.0242 23.6577 27.057 23.6809C27.0898 23.704 27.1289 23.7165 27.1691 23.7165H27.492C27.5321 23.7165 27.5713 23.704 27.6041 23.6809C27.6368 23.6577 27.6616 23.625 27.675 23.5872L35.8116 0.65887C35.8247 0.620917 35.8495 0.588022 35.8823 0.564828C35.9151 0.541633 35.9544 0.529309 35.9947 0.529594C36.0462 0.529594 36.0957 0.550024 36.1322 0.58639C36.1686 0.622756 36.1891 0.672078 36.1891 0.723508V22.5326C36.1888 22.584 36.1682 22.6331 36.1318 22.6694C36.0954 22.7057 36.0462 22.7262 35.9947 22.7265H33.0297C32.9781 22.7265 32.9287 22.747 32.8922 22.7833C32.8558 22.8197 32.8353 22.869 32.8353 22.9204V23.0622C32.8356 23.1134 32.8562 23.1625 32.8926 23.1986C32.9291 23.2347 32.9783 23.255 33.0297 23.255H43.2537C43.2791 23.2551 43.3044 23.2502 43.328 23.2406C43.3515 23.231 43.373 23.2168 43.3911 23.1989C43.4091 23.181 43.4235 23.1597 43.4332 23.1362C43.443 23.1128 43.4481 23.0876 43.4481 23.0622V22.9204C43.4482 22.8949 43.4433 22.8697 43.4336 22.8461C43.4239 22.8225 43.4095 22.801 43.3915 22.783C43.3734 22.765 43.3519 22.7507 43.3282 22.741C43.3046 22.7313 43.2792 22.7264 43.2537 22.7265H39.76C39.7344 22.7267 39.7089 22.7218 39.6851 22.7121C39.6613 22.7025 39.6397 22.6882 39.6214 22.6702C39.6032 22.6522 39.5886 22.6308 39.5787 22.6072C39.5687 22.5836 39.5635 22.5582 39.5633 22.5326V0.723508C39.5633 0.672078 39.5838 0.622756 39.6203 0.58639C39.6567 0.550024 39.7062 0.529594 39.7578 0.529594H43.2184C43.2695 0.529911 43.3187 0.510273 43.3554 0.474881C43.3922 0.439489 43.4136 0.391153 43.4151 0.340215V0.193929C43.4148 0.142592 43.3942 0.0934417 43.3578 0.0571401C43.3214 0.0208384 43.2722 0.000312694 43.2207 1.50786e-05H35.5604C35.5201 0.000161104 35.4809 0.0126371 35.4479 0.0357569C35.415 0.0588767 35.39 0.0915257 35.3762 0.129291L29.1382 17.7131C29.1247 17.7507 29.0998 17.7833 29.0671 17.8063C29.0343 17.8293 28.9952 17.8417 28.9551 17.8417C28.9151 17.8417 28.876 17.8293 28.8432 17.8063C28.8104 17.7833 28.7856 17.7507 28.7721 17.7131L22.4681 0.128157C22.4544 0.0902353 22.4292 0.057516 22.396 0.0345499C22.3628 0.0115838 22.3232 -0.000487483 22.2828 1.50786e-05H14.2257C14.1743 0.000312694 14.125 0.0208384 14.0886 0.0571401C14.0522 0.0934417 14.0316 0.142592 14.0313 0.193929V0.340215C14.0316 0.391553 14.0522 0.440703 14.0886 0.477005C14.125 0.513306 14.1743 0.533832 14.2257 0.53413H17.2805C17.3061 0.533979 17.3315 0.538892 17.3551 0.548584C17.3788 0.558276 17.4003 0.572554 17.4183 0.59059C17.4364 0.608627 17.4507 0.630064 17.4604 0.653658C17.4702 0.677253 17.4751 0.702537 17.4749 0.728044V22.5326C17.4749 22.584 17.4545 22.6334 17.418 22.6697C17.3815 22.7061 17.3321 22.7265 17.2805 22.7265H14.0814C14.032 22.7264 13.9845 22.7452 13.9486 22.7789C13.9126 22.8127 13.891 22.8588 13.8881 22.908L13.879 23.0497C13.8774 23.076 13.8813 23.1024 13.8903 23.1271C13.8993 23.1519 13.9133 23.1746 13.9314 23.1938C13.9495 23.213 13.9713 23.2284 13.9955 23.2389C14.0197 23.2494 14.0458 23.2549 14.0723 23.255H21.462C21.5133 23.255 21.5626 23.2347 21.599 23.1986C21.6355 23.1625 21.6561 23.1134 21.6564 23.0622V22.9204C21.6564 22.8696 21.6364 22.8208 21.6006 22.7845C21.5649 22.7482 21.5163 22.7274 21.4654 22.7265Z" fill="white" class="logo-2"></path>
    <path d="M66.1186 20.2453C66.1504 18.762 66.2095 17.5487 66.2721 16.1402C66.2737 16.1065 66.2686 16.0728 66.2568 16.0412C66.2451 16.0095 66.227 15.9806 66.2038 15.9561C66.1805 15.9316 66.1525 15.9121 66.1214 15.8987C66.0904 15.8853 66.0569 15.8784 66.0231 15.8783C65.9657 15.8785 65.9101 15.8984 65.8658 15.9348C65.8214 15.9712 65.7911 16.0217 65.7798 16.0779C64.984 19.9448 62.8103 22.7265 57.5283 22.7265H52.6375C52.5713 22.7262 52.508 22.6998 52.4614 22.653C52.4147 22.6063 52.3885 22.543 52.3885 22.477V11.3978C52.3888 11.3316 52.4154 11.2681 52.4625 11.2214C52.5096 11.1746 52.5733 11.1484 52.6397 11.1484C56.7871 11.1586 59.087 11.4625 59.7202 15.9441C59.7284 16.0066 59.7601 16.0637 59.8088 16.1039C59.8576 16.1441 59.9197 16.1643 59.9828 16.1606H60.0056C60.0695 16.1554 60.1289 16.1257 60.1713 16.0777C60.2137 16.0297 60.2358 15.9671 60.233 15.9032C60.1738 14.4914 60.1443 13.0535 60.1443 11.6451C60.1443 9.84502 60.1742 8.04498 60.2341 6.24494C60.2355 6.21168 60.2301 6.17849 60.2182 6.14737C60.2064 6.11625 60.1883 6.08785 60.1652 6.06389C60.142 6.03994 60.1142 6.02091 60.0834 6.00798C60.0527 5.99505 60.0196 5.98848 59.9863 5.98866H59.9135C59.8501 5.98909 59.7892 6.0134 59.743 6.05672C59.6969 6.10005 59.6688 6.15918 59.6645 6.22226C59.3951 10.0484 57.8376 10.6018 52.6375 10.6188C52.5711 10.6185 52.5076 10.5921 52.4605 10.5455C52.4135 10.4988 52.3868 10.4355 52.3862 10.3693V0.777925C52.3862 0.74512 52.3927 0.71264 52.4054 0.68236C52.418 0.65208 52.4366 0.624602 52.4599 0.601511C52.4833 0.57842 52.511 0.560174 52.5415 0.547828C52.572 0.535481 52.6046 0.529279 52.6375 0.529579H57.6613C62.1054 0.529579 64.1666 1.94254 65.2102 6.19278C65.2232 6.24717 65.2541 6.29563 65.2981 6.33038C65.342 6.36514 65.3963 6.38417 65.4524 6.38443H65.5126C65.5474 6.38427 65.5817 6.37689 65.6135 6.36275C65.6452 6.34861 65.6737 6.32802 65.697 6.30231C65.7203 6.27659 65.738 6.24631 65.7489 6.21339C65.7598 6.18048 65.7638 6.14565 65.7605 6.11113C65.6691 5.25704 65.6334 4.39793 65.6536 3.53922C65.7138 1.96636 65.9947 1.32678 66.1231 0.280098C66.1273 0.245083 66.124 0.209587 66.1135 0.175928C66.1029 0.14227 66.0854 0.111208 66.062 0.0847718C66.0386 0.0583356 66.0099 0.0371204 65.9777 0.0225127C65.9455 0.00790504 65.9106 0.000233687 65.8753 0L45.441 0C45.3747 0 45.3111 0.0262844 45.2642 0.0730711C45.2173 0.119858 45.1909 0.183314 45.1909 0.24948V0.280098C45.1912 0.346173 45.2177 0.409456 45.2645 0.456178C45.3113 0.5029 45.3748 0.52928 45.441 0.529579H48.7573C48.7901 0.529429 48.8226 0.535743 48.8529 0.548156C48.8833 0.56057 48.9109 0.578839 48.9341 0.601915C48.9573 0.624991 48.9758 0.652419 48.9884 0.682624C49.0009 0.712829 49.0074 0.745216 49.0074 0.777925V22.477C49.0074 22.5432 48.9811 22.6067 48.9342 22.6534C48.8873 22.7002 48.8236 22.7265 48.7573 22.7265H45.441C45.3749 22.7265 45.3114 22.7526 45.2646 22.7992C45.2177 22.8457 45.1912 22.9089 45.1909 22.9749V23.0066C45.1912 23.0726 45.2177 23.1357 45.2646 23.1823C45.3114 23.2288 45.3749 23.255 45.441 23.255H66.0038C66.039 23.2547 66.0738 23.2471 66.1059 23.2325C66.138 23.218 66.1666 23.1969 66.19 23.1706C66.2134 23.1443 66.2309 23.1133 66.2415 23.0798C66.2522 23.0463 66.2556 23.0109 66.2516 22.976C66.142 22.0701 66.0976 21.1575 66.1186 20.2453Z" fill="white" class="logo-3"></path>
    <path d="M83.3684 16.6755C83.3684 12.1633 80.0897 10.925 76.7131 9.87828C73.1081 8.73181 69.4041 7.8144 69.4041 4.25024C69.4041 1.83141 71.8291 0.555661 73.9926 0.555661C74.9575 0.547931 75.9108 0.76577 76.7761 1.19172C77.6414 1.61767 78.3947 2.23989 78.9755 3.0085C79.6758 3.92931 80.0669 4.88187 80.6001 7.03421C80.6137 7.08869 80.6452 7.13709 80.6894 7.17179C80.7337 7.20649 80.7883 7.22551 80.8445 7.22585H80.9457C80.9794 7.22587 81.0127 7.21914 81.0438 7.20605C81.0748 7.19296 81.1028 7.17379 81.1263 7.14967C81.1497 7.12555 81.168 7.09698 81.1802 7.06565C81.1923 7.03432 81.198 7.00088 81.197 6.9673L80.9832 0.602155C80.9809 0.537167 80.9534 0.475608 80.9066 0.430371C80.8598 0.385134 80.7972 0.359729 80.732 0.359478H80.6649C80.6078 0.359248 80.5523 0.378617 80.5078 0.414336C80.4633 0.450056 80.4325 0.499954 80.4205 0.555661C80.2772 1.28482 79.8384 1.701 79.2052 1.701C78.9096 1.701 78.7504 1.60348 78.0899 1.17823C77.0803 0.4536 75.375 0 73.8618 0C70.2557 0 68.0638 2.9484 68.0638 6.37649C68.0638 10.3977 70.9492 11.6042 74.0631 12.6827C77.767 13.9584 81.7995 14.9756 81.7995 19.0954C81.7995 22.0053 78.9141 23.509 76.3243 23.509C73.9971 23.509 71.4357 22.2344 70.2272 20.4358C69.3643 19.1283 69.0619 18.2551 68.531 15.571C68.5193 15.5139 68.4883 15.4626 68.4432 15.4257C68.398 15.3887 68.3416 15.3684 68.2832 15.368C68.2501 15.368 68.2173 15.3745 68.1868 15.3872C68.1562 15.3998 68.1285 15.4184 68.1051 15.4418C68.0818 15.4652 68.0633 15.4929 68.0507 15.5235C68.0382 15.554 68.0318 15.5867 68.0319 15.6197L68.0626 23.1937C68.0629 23.2601 68.0895 23.3237 68.1365 23.3706C68.1836 23.4175 68.2473 23.444 68.3139 23.4443H68.3241C68.3807 23.4439 68.4355 23.4245 68.4798 23.3894C68.5241 23.3542 68.5553 23.3053 68.5685 23.2504C68.8232 22.2196 69.1506 21.842 69.7691 21.842C70.117 21.8525 70.456 21.9538 70.7525 22.1357L72.3543 23.0202C73.5014 23.6734 74.8452 24.0011 76.2879 24.0011C80.6467 24 83.3684 20.9257 83.3684 16.6755Z" fill="white" class="logo-4"></path>
    </g>
    <defs>
    <clipPath id="clip0_1049_5751">
    <rect width="83.3684" height="24" fill="white" class="logo-5"></rect>
    </clipPath>
    </defs>
    </svg>
    