<svg width="31" height="28" viewBox="0 0 31 28" fill="none" xmlns="http://www.w3.org/2000/svg">
<path d="M3.60031 14.4433V14.0629V13.5215V13.1411H3.21648H0.383828H0V13.5215V14.0629V14.4433H0.383828H3.21648H3.60031Z" fill="#7EB3FF"/>
<path d="M2.65867 6.44605L2.32602 6.25586L2.13411 6.58426L1.86159 7.0534L1.66968 7.38306L2.00105 7.57325L4.45499 8.97687L4.78636 9.16706L4.97828 8.83739L5.25207 8.36825L5.44399 8.03859L5.11134 7.8484L2.65867 6.44605Z" fill="#7EB3FF"/>
<path d="M8.00535 1.77644L7.81344 1.44678L7.48206 1.63697L7.0074 1.90704L6.67603 2.09723L6.86794 2.4269L8.28426 4.85755L8.47618 5.18721L8.80755 4.99702L9.28094 4.72568L9.61359 4.53549L9.42168 4.20582L8.00535 1.77644Z" fill="#7EB3FF"/>
<path d="M14.0622 0H13.6783V0.380383V3.18761V3.56799H14.0622H14.6085H14.9923V3.18761V0.380383V0H14.6085H14.0622Z" fill="#7EB3FF"/>
<path d="M21.1349 1.84498L20.8022 1.65479L20.6103 1.98318L19.194 4.4151L19.0021 4.74476L19.3347 4.93495L19.8081 5.20503L20.1408 5.39522L20.3327 5.06682L21.749 2.63491L21.9409 2.30524L21.6083 2.11505L21.1349 1.84498Z" fill="#7EB3FF"/>
<path d="M19.968 23.1412L19.7761 22.8115L19.4434 23.0017L18.97 23.2731L18.6374 23.4632L18.8293 23.7929L20.2456 26.2236L20.4375 26.5532L20.7702 26.363L21.2436 26.0917L21.5762 25.9015L21.3843 25.5731L19.968 23.1412Z" fill="#7EB3FF"/>
<path d="M13.6426 24.4307H13.2587V24.811V27.6195V27.9999H13.6426H14.1902H14.574V27.6195V24.811V24.4307H14.1902H13.6426Z" fill="#7EB3FF"/>
<path d="M8.44421 22.7937L8.11156 22.6035L7.91964 22.9332L6.50332 25.3638L6.3114 25.6935L6.64405 25.8837L7.11744 26.155L7.44881 26.3452L7.64073 26.0156L9.05833 23.5849L9.25025 23.2552L8.91759 23.065L8.44421 22.7937Z" fill="#7EB3FF"/>
<path d="M4.76843 18.8009L4.57652 18.4712L4.24387 18.6614L1.79121 20.065L1.45856 20.2552L1.65047 20.5849L1.92427 21.054L2.11618 21.3837L2.44883 21.1935L4.90149 19.7899L5.23415 19.5997L5.04223 19.27L4.76843 18.8009Z" fill="#7EB3FF"/>
<path d="M11.0363 19.1231H14.8989C15.7523 19.1231 16.4432 18.4384 16.4432 17.5914V14.9123H25.0983V18.0834H25.9811H26.8639V16.8814H28.0781V18.0834H28.9609H29.8437V16.8814V14.9123H30.6728V14.0374V13.1625H29.8437H28.0781H26.8639H25.0983H16.4432V10.4833C16.4432 9.63762 15.751 8.95166 14.8989 8.95166H11.0363C10.183 8.95166 9.49207 9.63762 9.49207 10.4833V17.5914C9.49207 18.4371 10.183 19.1231 11.0363 19.1231ZM11.2577 10.7027H14.6776V17.3746H11.2577V10.7027Z" fill="#A1F0C4"/>
</svg>
