<svg width="14" height="14" viewBox="0 0 14 14" fill="none" xmlns="http://www.w3.org/2000/svg">
<path d="M7.06634 10.8834C7.24412 10.8834 7.39412 10.8223 7.51634 10.7C7.63856 10.5778 7.69967 10.4278 7.69967 10.25C7.69967 10.0723 7.63856 9.92226 7.51634 9.80004C7.39412 9.67782 7.24412 9.61671 7.06634 9.61671C6.88856 9.61671 6.73856 9.67782 6.61634 9.80004C6.49412 9.92226 6.43301 10.0723 6.43301 10.25C6.43301 10.4278 6.49412 10.5778 6.61634 10.7C6.73856 10.8223 6.88856 10.8834 7.06634 10.8834ZM6.48301 8.45004H7.46634C7.46634 8.16115 7.50245 7.89726 7.57467 7.65837C7.6469 7.41948 7.8719 7.14448 8.24967 6.83337C8.59412 6.54448 8.83856 6.26115 8.98301 5.98337C9.12745 5.7056 9.19967 5.40004 9.19967 5.06671C9.19967 4.47782 9.00801 4.0056 8.62467 3.65004C8.24134 3.29448 7.73301 3.11671 7.09967 3.11671C6.55523 3.11671 6.07467 3.25282 5.65801 3.52504C5.24134 3.79726 4.93856 4.17226 4.74967 4.65004L5.63301 4.98337C5.75523 4.67226 5.93856 4.4306 6.18301 4.25837C6.42745 4.08615 6.71634 4.00004 7.04967 4.00004C7.42745 4.00004 7.73301 4.10282 7.96634 4.30837C8.19967 4.51393 8.31634 4.77782 8.31634 5.10004C8.31634 5.34448 8.24412 5.57504 8.09967 5.79171C7.95523 6.00837 7.74412 6.23337 7.46634 6.46671C7.13301 6.7556 6.88579 7.04171 6.72467 7.32504C6.56356 7.60837 6.48301 7.98337 6.48301 8.45004ZM6.99967 13.6667C6.08856 13.6667 5.22745 13.4917 4.41634 13.1417C3.60523 12.7917 2.8969 12.3139 2.29134 11.7084C1.68579 11.1028 1.20801 10.3945 0.858008 9.58337C0.508008 8.77226 0.333008 7.91115 0.333008 7.00004C0.333008 6.07782 0.508008 5.21115 0.858008 4.40004C1.20801 3.58893 1.68579 2.88337 2.29134 2.28337C2.8969 1.68337 3.60523 1.20837 4.41634 0.858374C5.22745 0.508374 6.08856 0.333374 6.99967 0.333374C7.9219 0.333374 8.78856 0.508374 9.59967 0.858374C10.4108 1.20837 11.1163 1.68337 11.7163 2.28337C12.3163 2.88337 12.7913 3.58893 13.1413 4.40004C13.4913 5.21115 13.6663 6.07782 13.6663 7.00004C13.6663 7.91115 13.4913 8.77226 13.1413 9.58337C12.7913 10.3945 12.3163 11.1028 11.7163 11.7084C11.1163 12.3139 10.4108 12.7917 9.59967 13.1417C8.78856 13.4917 7.9219 13.6667 6.99967 13.6667ZM6.99967 12.6667C8.57745 12.6667 9.91634 12.1139 11.0163 11.0084C12.1163 9.90282 12.6663 8.56671 12.6663 7.00004C12.6663 5.42226 12.1163 4.08337 11.0163 2.98337C9.91634 1.88337 8.57745 1.33337 6.99967 1.33337C5.43301 1.33337 4.0969 1.88337 2.99134 2.98337C1.88579 4.08337 1.33301 5.42226 1.33301 7.00004C1.33301 8.56671 1.88579 9.90282 2.99134 11.0084C4.0969 12.1139 5.43301 12.6667 6.99967 12.6667Z" fill="black" fill-opacity="0.4"/>
</svg>
