<svg width="13" height="13" viewBox="0 0 13 13" fill="none" xmlns="http://www.w3.org/2000/svg">
<path d="M5.41196 11.1433C4.51878 11.1433 3.80788 10.892 3.27926 10.3895C2.75975 9.88694 2.5 9.17883 2.5 8.26513H3.94914C3.94914 8.72198 4.05851 9.10116 4.27725 9.40268C4.50511 9.7042 4.87423 9.85496 5.38462 9.85496C5.88589 9.85496 6.24134 9.71334 6.45097 9.43009C6.66059 9.13771 6.76541 8.76766 6.76541 8.31995V2H8.21455V8.31995C8.21455 9.22451 7.96391 9.92349 7.46264 10.4169C6.96136 10.9011 6.2778 11.1433 5.41196 11.1433Z" fill="#7453FD"/>
<rect x="4.40137" y="5.20703" width="6.09894" height="1.21979" fill="#7453FD"/>
<rect x="4.40137" y="3.17383" width="6.09894" height="1.21979" fill="#7453FD"/>
<rect x="0.5" y="0.5" width="12" height="12" rx="0.5" stroke="#7453FD" stroke-dasharray="3 3"/>
</svg>
