<svg width="25" height="24" viewBox="0 0 25 24" fill="none" xmlns="http://www.w3.org/2000/svg">
<g clip-path="url(#clip0_1050_8904)">
<path d="M2.6781 0.000366211C1.20634 0.000366211 0 1.20155 0 2.66702V21.6669C0 22.9479 1.05689 24.0002 2.34333 24.0002H22.3053C23.5918 24.0002 24.6486 22.9479 24.6486 21.6669V6.33366C24.6486 5.05272 23.5918 4.00034 22.3053 4.00034H20.6315V0.667029C20.6315 0.318221 20.3123 0.000366211 19.962 0.000366211H2.6781ZM2.6781 1.3331H19.2925V3.99975H2.6781C1.92488 3.99975 1.33905 3.41642 1.33905 2.66642C1.33905 1.91643 1.92488 1.3331 2.6781 1.3331ZM1.33905 4.96819C1.73359 5.19676 2.1909 5.33248 2.6781 5.33248C10.2186 5.32593 15.8247 5.33248 22.3053 5.33248C22.8732 5.33248 23.3096 5.767 23.3096 6.33247V10.3324H13.6015C12.6857 10.3324 11.9277 11.0872 11.9277 11.9991V15.9991C11.9277 16.911 12.6857 17.6657 13.6015 17.6657H23.3096V21.6657C23.3096 22.2312 22.8732 22.6657 22.3053 22.6657H2.34333C1.77543 22.6657 1.33905 22.2312 1.33905 21.6657V4.96879V4.96819ZM13.6015 11.6658H23.3096V16.3324H13.6015C13.4042 16.3324 13.2667 16.1955 13.2667 15.9991V11.9991C13.2667 11.8027 13.4042 11.6652 13.6015 11.6658ZM16.9491 12.6664C16.2097 12.6664 15.6101 13.2634 15.6101 13.9997C15.6101 14.736 16.2097 15.333 16.9491 15.333C17.6886 15.333 18.2882 14.736 18.2882 13.9997C18.2882 13.2634 17.6886 12.6664 16.9491 12.6664Z" fill="#7453FD"/>
</g>
<defs>
<clipPath id="clip0_1050_8904">
<rect width="24.6486" height="24" fill="white" transform="translate(0 0.000244141)"/>
</clipPath>
</defs>
</svg>
