<svg width="178" height="160" viewBox="0 0 178 160" fill="none" xmlns="http://www.w3.org/2000/svg">
<path d="M175.343 93.6317L172.214 95.4384L63.1454 158.409C61.0031 159.646 57.7636 159.78 55.9081 158.709L5.22662 129.448L1.5783 127.342C-0.277147 126.271 -0.0438937 124.4 2.09764 123.164L114.295 58.3863C116.437 57.1493 119.677 57.0152 121.532 58.0864L175.862 89.4535C177.718 90.5247 177.484 92.3956 175.343 93.6317Z" fill="#8B75F3"/>
<path d="M172.214 95.4384L63.1454 158.409C61.0031 159.646 57.7636 159.78 55.9081 158.709L5.22662 129.448L114.295 66.477C116.437 65.2408 119.677 65.1067 121.532 66.1771L172.214 95.4384Z" fill="#5942C2"/>
<path d="M59.0501 159.751C57.8123 159.751 56.6282 159.501 55.7448 158.991L5.06327 129.73C4.96249 129.672 4.90073 129.565 4.90073 129.449C4.90073 129.332 4.96249 129.225 5.06327 129.167L114.132 66.1966C116.36 64.9109 119.753 64.7768 121.694 65.8967L172.376 95.158C172.476 95.2157 172.538 95.3238 172.538 95.4393C172.538 95.5547 172.476 95.6627 172.376 95.7205L63.3072 158.691C62.093 159.393 60.5325 159.751 59.0501 159.751ZM5.876 129.448L56.0699 158.428C57.8326 159.445 60.9332 159.311 62.9821 158.128L171.563 95.4384L121.369 66.4583C119.606 65.4416 116.506 65.5757 114.457 66.7582L5.87681 129.448H5.876Z" fill="#272245"/>
<path d="M59.0501 159.751C57.8123 159.751 56.629 159.501 55.7448 158.991L5.06327 129.73L1.41495 127.624C0.502264 127.097 0 126.353 0 125.528C0 124.557 0.705444 123.593 1.93428 122.883L114.132 58.1059C116.359 56.8194 119.753 56.6853 121.694 57.806L176.024 89.1731C176.937 89.6997 177.439 90.4442 177.439 91.2691C177.439 92.2403 176.733 93.2042 175.505 93.9137L172.376 95.7204L63.3072 158.691C62.093 159.392 60.5325 159.751 59.0501 159.751ZM118.389 57.6849C117.025 57.6849 115.582 58.0181 114.457 58.6683L2.26019 123.445C1.23778 124.035 0.650992 124.794 0.650992 125.527C0.650992 126.11 1.03785 126.654 1.74085 127.061L5.38918 129.166L56.0707 158.428C57.8335 159.445 60.934 159.311 62.9829 158.128L172.051 95.1572L175.18 93.3505C176.203 92.7605 176.79 92.0014 176.79 91.2683C176.79 90.6856 176.403 90.1411 175.7 89.7347L121.37 58.3676C120.575 57.9092 119.509 57.6841 118.39 57.6841L118.389 57.6849Z" fill="#272245"/>
<path d="M177.114 71.6662L170.56 72.9373L121.532 44.6309C119.678 43.5598 116.437 43.6947 114.296 44.9308L12.8069 103.525L0.325897 105.945V112.254L0.337275 112.26C0.406357 112.871 0.815156 113.447 1.5783 113.887L55.9089 145.255C57.7636 146.326 61.0039 146.191 63.1454 144.955L175.343 80.1779C176.538 79.4879 177.137 78.6012 177.113 77.7657V71.667L177.114 71.6662Z" fill="#5942C2"/>
<path d="M59.0501 146.295C57.8123 146.295 56.629 146.045 55.7456 145.536L1.41495 114.168C0.612795 113.704 0.133287 113.086 0.024382 112.376C0.00894022 112.337 0 112.296 0 112.253V105.945C0 105.788 0.11053 105.655 0.263322 105.625L12.6907 103.215L114.132 44.648C116.359 43.3615 119.752 43.2274 121.693 44.3481L170.616 72.5935L177.05 71.346C177.145 71.3273 177.244 71.3525 177.319 71.4143C177.394 71.4761 177.438 71.5679 177.438 71.6654V77.7633C177.438 77.7633 177.438 77.7698 177.438 77.773C177.458 78.7589 176.754 79.7358 175.505 80.4567L63.3072 145.234C62.093 145.935 60.5325 146.294 59.0501 146.294V146.295ZM0.650992 112.174C0.655055 112.189 0.658306 112.206 0.659932 112.223C0.720073 112.754 1.09393 113.231 1.74004 113.604L56.0707 144.972C57.8327 145.99 60.934 145.855 62.9821 144.672L175.18 79.8951C176.223 79.2928 176.809 78.5191 176.788 77.7739C176.788 77.7649 176.788 77.756 176.788 77.747V72.0604L170.621 73.2559C170.544 73.2705 170.464 73.2575 170.397 73.2185L121.369 44.9122C119.607 43.8946 116.506 44.0295 114.458 45.2121L12.9695 103.806C12.9386 103.824 12.9044 103.837 12.8687 103.844L0.650992 106.213V112.174Z" fill="#272245"/>
<path d="M55.9081 139.156L1.57749 107.788C-0.277152 106.717 -0.0447139 104.847 2.09682 103.61L114.295 38.8322C116.437 37.5953 119.677 37.4612 121.532 38.5323L175.862 69.9002C177.717 70.9714 177.484 72.8415 175.343 74.0785L63.1454 138.856C61.0039 140.093 57.7636 140.227 55.9089 139.156H55.9081Z" fill="#8B75F3"/>
<path d="M59.0501 140.197C57.8123 140.197 56.629 139.946 55.7456 139.437L1.41495 108.069C0.502264 107.542 0 106.798 0 105.973C0 105.002 0.704631 104.038 1.93428 103.328L114.133 38.551C116.36 37.2644 119.753 37.1303 121.694 38.2511L176.025 69.619C176.937 70.1456 177.44 70.8901 177.44 71.715C177.44 72.6862 176.735 73.6501 175.505 74.3604L63.308 139.138C62.0938 139.839 60.5333 140.198 59.0509 140.198L59.0501 140.197ZM56.0707 138.874C57.8327 139.891 60.934 139.756 62.9821 138.574L175.18 73.7964C176.202 73.2055 176.789 72.4473 176.789 71.7142C176.789 71.1315 176.402 70.5869 175.699 70.1814L121.368 38.8135C119.606 37.796 116.505 37.9309 114.457 39.1134L2.26019 103.892C1.23778 104.482 0.650992 105.241 0.650992 105.974C0.650992 106.557 1.03785 107.101 1.74085 107.507L56.0715 138.874L56.0707 138.874Z" fill="#272245"/>
<path d="M169.997 74.3913L164.02 77.8421L150.152 85.8491L146.091 88.1938L115.593 105.802L61.2559 137.173C60.1571 137.808 58.495 137.877 57.5442 137.327L10.988 110.448L4.74469 106.843C3.79299 106.293 3.91165 105.334 5.01126 104.701L40.8971 83.9814L59.3484 73.3291L66.875 68.9834L93.9071 53.3759L113.752 41.9189C114.851 41.2842 116.512 41.2151 117.464 41.7645L169.916 72.0482L170.263 72.2489C171.215 72.7992 171.096 73.7582 169.997 74.3913Z" fill="#D9C8FF"/>
<path d="M164.02 77.8422L150.152 85.8492L146.091 88.1939L115.593 105.802L61.2559 137.174C60.1571 137.808 58.495 137.877 57.5441 137.327L10.988 110.448L40.8971 93.1799L59.3484 82.5275L66.875 78.1811L93.9071 62.5743L113.752 51.1174C114.851 50.4826 116.512 50.4136 117.464 50.963L164.02 77.8422Z" fill="#BEA1FF"/>
<path d="M59.1599 138.026C58.4983 138.026 57.8644 137.889 57.3808 137.608L10.8247 110.729C10.7239 110.671 10.6621 110.563 10.6621 110.448C10.6621 110.332 10.7239 110.224 10.8247 110.167L40.7338 92.8987L59.185 82.2463L66.7117 77.8998L93.7437 62.2931L113.589 50.8361C114.795 50.1396 116.568 50.0713 117.626 50.6817L164.182 77.5609C164.283 77.6186 164.344 77.7267 164.344 77.8421C164.344 77.9575 164.283 78.0656 164.182 78.1233L150.313 86.1303L146.253 88.475L115.755 106.083L61.4176 137.455C60.7634 137.833 59.9425 138.026 59.159 138.026H59.1599ZM11.6374 110.448L57.7059 137.046C58.5511 137.535 60.1018 137.464 61.0925 136.892L115.43 105.521L145.928 87.9126L149.988 85.5679L163.369 77.8421L117.301 51.2441C116.454 50.7556 114.904 50.8263 113.914 51.3985L94.0688 62.8555L67.0368 78.4622L59.5101 82.8087L41.0588 93.4611L11.6374 110.448Z" fill="#272245"/>
<path d="M59.159 138.026C58.4983 138.026 57.8643 137.889 57.3808 137.609L4.58132 107.125C4.06199 106.825 3.77591 106.393 3.77591 105.911C3.77591 105.355 4.16683 104.812 4.84789 104.419L59.185 73.047L66.7117 68.7014L93.7437 53.0946L113.589 41.6376C114.796 40.9403 116.569 40.8729 117.626 41.4832L170.078 71.767L170.425 71.9677C170.944 72.2676 171.23 72.6992 171.23 73.1811C171.23 73.737 170.839 74.2807 170.158 74.6733L146.252 88.4758L115.754 106.084L61.4168 137.455C60.7625 137.833 59.9409 138.027 59.1582 138.027L59.159 138.026ZM115.856 41.7213C115.18 41.7213 114.462 41.8847 113.914 42.2009L94.0688 53.6578L67.0368 69.2646L41.0588 84.2634L5.17217 104.982C4.70485 105.251 4.42528 105.599 4.42528 105.912C4.42528 106.22 4.68616 106.435 4.9056 106.562L57.7051 137.047C58.5511 137.535 60.1018 137.464 61.0917 136.892L115.429 105.521L145.927 87.9125L169.833 74.11C170.3 73.841 170.579 73.494 170.579 73.1811C170.579 72.8731 170.319 72.6577 170.099 72.5309L169.752 72.3302L117.3 42.0464C116.922 41.8278 116.402 41.7213 115.855 41.7213H115.856Z" fill="#272245"/>
<path d="M148.141 57.9149L138.154 52.1494C137.703 51.8894 137.76 51.4342 138.28 51.1343C138.8 50.8336 139.588 50.8011 140.039 51.0612L150.026 56.8267C150.477 57.0867 150.42 57.5419 149.9 57.8418C149.38 58.1425 148.592 58.175 148.141 57.9149Z" fill="#00DDB2"/>
<path d="M148.907 58.4148C148.563 58.4148 148.231 58.3425 147.978 58.197L137.992 52.4315C137.695 52.26 137.524 51.9967 137.524 51.709C137.524 51.3823 137.741 51.071 138.118 50.8532C138.738 50.4956 139.653 50.4631 140.201 50.7801L150.188 56.5455C150.485 56.717 150.655 56.9803 150.655 57.2681C150.655 57.5948 150.439 57.906 150.061 58.1238C149.727 58.3165 149.308 58.4148 148.906 58.4148H148.907ZM139.28 51.2116C138.989 51.2116 138.676 51.2815 138.443 51.4156C138.257 51.5229 138.175 51.6399 138.175 51.7082C138.175 51.757 138.227 51.8163 138.317 51.8675L148.304 57.633C148.652 57.8337 149.322 57.7996 149.737 57.5598C149.922 57.4525 150.005 57.3355 150.005 57.2672C150.005 57.2185 149.953 57.1591 149.864 57.1079L139.877 51.3425C139.724 51.2539 139.509 51.2108 139.281 51.2108L139.28 51.2116Z" fill="#272245"/>
<path opacity="0.29" d="M88.7202 101.153L75.4297 93.4798L88.7194 85.806L102.01 93.4798L88.7202 101.153Z" fill="#FFDE8A"/>
<path d="M76.0799 93.4798L88.7203 100.778L101.361 93.4806L88.7203 86.1823L76.0799 93.4798ZM88.7203 101.479C88.6642 101.479 88.6081 101.464 88.5577 101.435L75.2672 93.7618C75.1664 93.7041 75.1047 93.596 75.1047 93.4806C75.1047 93.3652 75.1664 93.2571 75.2672 93.1994L88.5577 85.5264C88.6585 85.4687 88.782 85.4687 88.8828 85.5264L102.173 93.1994C102.274 93.2571 102.336 93.3652 102.336 93.4806C102.336 93.596 102.274 93.7041 102.173 93.7618L88.8828 101.435C88.8324 101.464 88.7763 101.479 88.7203 101.479Z" fill="#272245"/>
<path opacity="0.52" d="M88.7203 94.733L66.0867 81.666L88.7194 68.599L111.353 81.666L88.7203 94.733Z" fill="#FFDE8A"/>
<path d="M66.7369 81.666L88.7202 94.3583L110.703 81.6668L88.7194 68.9745L66.7369 81.666ZM88.7202 95.0589C88.6642 95.0589 88.6081 95.0443 88.5577 95.015L65.9241 81.9472C65.8234 81.8895 65.7616 81.7814 65.7616 81.666C65.7616 81.5506 65.8234 81.4425 65.9241 81.3848L88.5569 68.3178C88.6577 68.2601 88.7812 68.2601 88.882 68.3178L111.516 81.3856C111.616 81.4433 111.678 81.5506 111.678 81.6668C111.678 81.783 111.616 81.8903 111.516 81.948L88.8828 95.015C88.8324 95.0443 88.7763 95.0589 88.7202 95.0589Z" fill="#272245"/>
<path opacity="0.75" d="M88.7202 88.3141L56.7436 69.8523L88.7194 51.3912L120.695 69.8531L88.7202 88.3141Z" fill="#FFDE8A"/>
<path d="M57.3938 69.8523L88.7203 87.9387L120.046 69.8531L88.7194 51.7667L57.3938 69.8523ZM88.7203 88.6392C88.6642 88.6392 88.6081 88.6246 88.5577 88.5953L56.5811 70.1335C56.4803 70.0758 56.4185 69.9677 56.4185 69.8523C56.4185 69.7369 56.4803 69.6288 56.5811 69.5711L88.5569 51.1101C88.6577 51.0523 88.7812 51.0523 88.882 51.1101L120.859 69.5719C120.959 69.6296 121.021 69.7369 121.021 69.8531C121.021 69.9693 120.959 70.0766 120.859 70.1343L88.8828 88.5953C88.8324 88.6246 88.7763 88.6392 88.7203 88.6392Z" fill="#272245"/>
<path d="M120.696 57.8743L88.7195 76.3361V39.414L120.696 20.953V57.8743Z" fill="#DFD0FA"/>
<path d="M88.7195 76.588C88.6764 76.588 88.6325 76.5767 88.5935 76.5547C88.5155 76.51 88.4675 76.4271 88.4675 76.3369V39.4148C88.4675 39.3246 88.5155 39.2417 88.5935 39.197L120.57 20.7352C120.648 20.6905 120.744 20.6905 120.822 20.7352C120.9 20.7799 120.948 20.8628 120.948 20.953V57.8751C120.948 57.9653 120.9 58.0482 120.822 58.0929L88.8454 76.5547C88.8064 76.5775 88.7633 76.588 88.7195 76.588ZM88.9714 39.5595V75.9005L120.445 57.7296V21.3886L88.9714 39.5595Z" fill="#272245"/>
<path d="M88.7202 76.3361L56.7436 57.8743V20.953L88.7202 39.414V76.3361Z" fill="white"/>
<path d="M88.7203 76.588C88.6772 76.588 88.6333 76.5767 88.5943 76.5547L56.6176 58.0929C56.5396 58.0482 56.4917 57.9653 56.4917 57.8751V20.953C56.4917 20.8628 56.5396 20.7799 56.6176 20.7352C56.6957 20.6905 56.7916 20.6905 56.8696 20.7352L88.8462 39.197C88.9243 39.2417 88.9722 39.3246 88.9722 39.4148V76.3369C88.9722 76.4271 88.9243 76.51 88.8462 76.5547C88.8072 76.5775 88.7642 76.588 88.7203 76.588ZM56.9956 57.7296L88.4691 75.9005V39.5595L56.9956 21.3886V57.7296Z" fill="#272245"/>
<path d="M88.7202 39.4141L56.7436 20.9522L88.7194 2.49121L120.695 20.9531L88.7202 39.4141Z" fill="url(#paint0_linear_1069_4233)"/>
<path d="M88.7203 39.6652C88.6772 39.6652 88.6333 39.6538 88.5943 39.6319L56.6176 21.1701C56.5396 21.1254 56.4917 21.0425 56.4917 20.9522C56.4917 20.862 56.5396 20.7791 56.6176 20.7344L88.5935 2.27339C88.6715 2.22869 88.7674 2.22869 88.8454 2.27339L120.822 20.7352C120.9 20.7799 120.948 20.8628 120.948 20.9531C120.948 21.0433 120.9 21.1262 120.822 21.1709L88.847 39.6319C88.808 39.6547 88.765 39.6652 88.7211 39.6652H88.7203ZM57.2467 20.9522L88.7203 39.1231L120.192 20.9522L88.7186 2.78135L57.2467 20.9522Z" fill="#272245"/>
<path d="M24.2842 53.302L27.492 51.4498V47.7454L24.2842 49.5976V53.302Z" fill="url(#paint1_linear_1069_4233)"/>
<path d="M24.2842 49.5976L27.492 47.7454L24.2842 45.8932L21.0764 47.7454L24.2842 49.5976Z" fill="#FCA9D3"/>
<path d="M21.0764 51.4498L24.2842 53.302V49.5976L21.0764 47.7454V51.4498Z" fill="url(#paint2_linear_1069_4233)"/>
<path d="M24.2842 56.1814L29.9863 52.8899V46.3052L24.2842 49.5975V56.1814Z" fill="#FFDE8A"/>
<path d="M24.2842 49.5976L29.9863 46.3052L24.2842 43.0137L18.5821 46.3052L24.2842 49.5976Z" fill="#FCA9D3"/>
<path d="M18.5821 52.8899L24.2842 56.1814V49.5975L18.5821 46.3052V52.8899Z" fill="url(#paint3_linear_1069_4233)"/>
<path d="M24.2842 56.4123C24.2444 56.4123 24.2046 56.4017 24.1688 56.3814C24.0973 56.3399 24.0534 56.2644 24.0534 56.1815V49.5976C24.0534 49.5155 24.0973 49.4391 24.1688 49.3977L29.8709 46.1053C29.9424 46.0639 30.0302 46.0639 30.1017 46.1053C30.1732 46.1468 30.2171 46.2223 30.2171 46.3052V52.8891C30.2171 52.9712 30.1732 53.0476 30.1017 53.089L24.3996 56.3814C24.3639 56.4017 24.324 56.4123 24.2842 56.4123ZM24.515 49.7309V55.7824L29.7563 52.7566V46.7051L24.515 49.7309Z" fill="#272245"/>
<path d="M24.2842 49.8284C24.2444 49.8284 24.2046 49.8178 24.1688 49.7975L18.4667 46.5052C18.3952 46.4637 18.3513 46.3881 18.3513 46.3052C18.3513 46.2223 18.3952 46.1467 18.4667 46.1053L24.1688 42.8129C24.2403 42.7715 24.3281 42.7715 24.3996 42.8129L30.1017 46.1053C30.1732 46.1467 30.2171 46.2223 30.2171 46.3052C30.2171 46.3881 30.1732 46.4637 30.1017 46.5052L24.3996 49.7975C24.3639 49.8178 24.324 49.8284 24.2842 49.8284ZM19.0429 46.306L24.2842 49.3318L29.5255 46.306L24.2842 43.2803L19.0429 46.306Z" fill="#272245"/>
<path d="M24.2842 56.4123C24.2444 56.4123 24.2046 56.4017 24.1688 56.3814L18.4667 53.089C18.3952 53.0476 18.3513 52.972 18.3513 52.8891V46.3052C18.3513 46.2232 18.3952 46.1468 18.4667 46.1053C18.5382 46.0639 18.626 46.0639 18.6975 46.1053L24.3996 49.3977C24.4711 49.4391 24.515 49.5147 24.515 49.5976V56.1815C24.515 56.2636 24.4711 56.3399 24.3996 56.3814C24.3639 56.4017 24.324 56.4123 24.2842 56.4123ZM18.8129 52.7566L24.0542 55.7824V49.7309L18.8129 46.7051V52.7566Z" fill="#272245"/>
<path d="M50.2053 8.88408L52.9141 7.3204V4.19141L50.2053 5.7559V8.88408Z" fill="url(#paint4_linear_1069_4233)"/>
<path d="M50.2053 5.75586L52.9141 4.19137L50.2053 2.62769L47.4956 4.19137L50.2053 5.75586Z" fill="#FCA9D3"/>
<path d="M47.4956 7.3204L50.2053 8.88408V5.7559L47.4956 4.19141V7.3204Z" fill="url(#paint5_linear_1069_4233)"/>
<path d="M50.2044 11.3166L55.0206 8.53625V2.97559L50.2044 5.75592V11.3166Z" fill="#FFDE8A"/>
<path d="M50.2044 5.75597L55.0206 2.97564L50.2052 0.195312L45.389 2.97564L50.2044 5.75597Z" fill="#FCA9D3"/>
<path d="M45.389 8.53625L50.2052 11.3166V5.75592L45.389 2.97559V8.53625Z" fill="url(#paint6_linear_1069_4233)"/>
<path d="M50.2044 11.5117C50.1711 11.5117 50.137 11.5027 50.1069 11.4857C50.0468 11.4507 50.0094 11.3865 50.0094 11.3174V5.75676C50.0094 5.68686 50.0468 5.62266 50.1069 5.58852L54.9231 2.80819C54.9832 2.77325 55.0572 2.77325 55.1182 2.80819C55.1783 2.84314 55.2157 2.90735 55.2157 2.97643V8.53709C55.2157 8.60698 55.1783 8.67119 55.1182 8.70532L50.302 11.4857C50.2719 11.5027 50.2386 11.5117 50.2044 11.5117ZM50.3995 5.86891V10.9801L54.8264 8.42412V3.31289L50.3995 5.86891Z" fill="#272245"/>
<path d="M50.2044 5.95097C50.1711 5.95097 50.137 5.94203 50.1069 5.92496L45.2907 3.14463C45.2306 3.10969 45.1932 3.04548 45.1932 2.9764C45.1932 2.90732 45.2306 2.8423 45.2907 2.80817L50.1077 0.0262104C50.1679 -0.00873679 50.2418 -0.00873679 50.3028 0.0262104L55.119 2.80654C55.1791 2.84149 55.2165 2.90569 55.2165 2.97477C55.2165 3.04386 55.1791 3.10887 55.119 3.14301L50.3028 5.92334C50.2727 5.9404 50.2394 5.94935 50.2053 5.94935L50.2044 5.95097ZM45.7783 2.97559L50.2044 5.53079L54.6313 2.97477L50.2053 0.419569L45.7783 2.97559Z" fill="#272245"/>
<path d="M50.2053 11.5116C50.1719 11.5116 50.1378 11.5027 50.1077 11.4856L45.2915 8.70528C45.2314 8.67033 45.194 8.60613 45.194 8.53705V2.97557C45.194 2.90568 45.2314 2.84147 45.2915 2.80734C45.3517 2.77239 45.4256 2.77239 45.4866 2.80734L50.3028 5.58767C50.3629 5.62262 50.4003 5.68682 50.4003 5.7559V11.3166C50.4003 11.3865 50.3629 11.4507 50.3028 11.4848C50.2727 11.5019 50.2394 11.5108 50.2053 11.5108V11.5116ZM45.5841 8.42408L50.011 10.9801V5.86887L45.5841 3.31285V8.42408Z" fill="#272245"/>
<path d="M39.9535 80.9631L42.7875 79.327V76.0542L39.9535 77.691V80.9631Z" fill="url(#paint7_linear_1069_4233)"/>
<path d="M39.9535 77.6909L42.7875 76.0541L39.9535 74.4181L37.1195 76.0541L39.9535 77.6909Z" fill="#FCA9D3"/>
<path d="M37.1195 79.327L39.9535 80.9631V77.691L37.1195 76.0542V79.327Z" fill="url(#paint8_linear_1069_4233)"/>
<path d="M39.9535 83.5068L44.9908 80.5989V74.7822L39.9535 77.691V83.5068Z" fill="#FFDE8A"/>
<path d="M39.9535 77.6909L44.9908 74.7822L39.9535 71.8743L34.9163 74.7822L39.9535 77.6909Z" fill="#FCA9D3"/>
<path d="M34.9163 80.5989L39.9535 83.5068V77.691L34.9163 74.7822V80.5989Z" fill="url(#paint9_linear_1069_4233)"/>
<path d="M39.9535 83.7109C39.9186 83.7109 39.8828 83.7019 39.8519 83.6832C39.7885 83.6467 39.7503 83.58 39.7503 83.5069V77.6902C39.7503 77.6171 39.7893 77.5504 39.8519 77.5139L44.8892 74.6059C44.9526 74.5693 45.0298 74.5693 45.0932 74.6059C45.1566 74.6425 45.1948 74.7091 45.1948 74.7823V80.599C45.1948 80.6721 45.1558 80.7387 45.0932 80.7753L40.0559 83.6832C40.0242 83.7011 39.9893 83.7109 39.9543 83.7109H39.9535ZM40.1575 77.8081V83.1542L44.7876 80.4811V75.135L40.1575 77.8081Z" fill="#272245"/>
<path d="M39.9535 77.8942C39.9186 77.8942 39.8828 77.8852 39.8519 77.8665L34.8147 74.9586C34.7513 74.922 34.7131 74.8554 34.7131 74.7823C34.7131 74.7091 34.7521 74.6425 34.8147 74.6059L39.8519 71.698C39.9153 71.6614 39.9925 71.6614 40.0559 71.698L45.0932 74.6059C45.1566 74.6425 45.1948 74.7091 45.1948 74.7823C45.1948 74.8554 45.1558 74.922 45.0932 74.9586L40.0559 77.8665C40.0242 77.8844 39.9893 77.8942 39.9543 77.8942H39.9535ZM35.3234 74.7823L39.9535 77.4553L44.5836 74.7823L39.9535 72.1092L35.3234 74.7823Z" fill="#272245"/>
<path d="M39.9535 83.7109C39.9186 83.7109 39.8828 83.7019 39.8519 83.6832L34.8147 80.7753C34.7513 80.7387 34.7131 80.6713 34.7131 80.599V74.7823C34.7131 74.7091 34.7521 74.6425 34.8147 74.6059C34.8781 74.5693 34.9553 74.5693 35.0187 74.6059L40.0559 77.5139C40.1193 77.5504 40.1575 77.6171 40.1575 77.6902V83.5069C40.1575 83.58 40.1185 83.6467 40.0559 83.6832C40.0242 83.7011 39.9893 83.7109 39.9543 83.7109H39.9535ZM35.1202 80.4811L39.7503 83.1542V77.8081L35.1202 75.135V80.4811Z" fill="#272245"/>
<path d="M161.356 52.6038L164.337 50.8824V47.4406L161.356 49.1619V52.6038Z" fill="url(#paint10_linear_1069_4233)"/>
<path d="M161.356 49.1619L164.337 47.4405L161.356 45.72L158.375 47.4405L161.356 49.1619Z" fill="#FCA9D3"/>
<path d="M158.375 50.8824L161.356 52.6038V49.1619L158.375 47.4406V50.8824Z" fill="url(#paint11_linear_1069_4233)"/>
<path d="M161.356 55.2801L166.655 52.221V46.1028L161.356 49.1619V55.2801Z" fill="#FFDE8A"/>
<path d="M161.356 49.1619L166.655 46.1028L161.356 43.0437L156.058 46.1028L161.356 49.1619Z" fill="#FCA9D3"/>
<path d="M156.058 52.221L161.356 55.2801V49.1619L156.058 46.1028V52.221Z" fill="url(#paint12_linear_1069_4233)"/>
<path d="M161.356 55.4938C161.319 55.4938 161.282 55.484 161.249 55.4653C161.182 55.4271 161.141 55.3564 161.141 55.28V49.1618C161.141 49.0854 161.182 49.0147 161.249 48.9765L166.548 45.9174C166.614 45.8792 166.695 45.8792 166.762 45.9174C166.829 45.9556 166.869 46.0263 166.869 46.1027V52.2209C166.869 52.2973 166.829 52.368 166.762 52.4062L161.463 55.4653C161.43 55.4848 161.393 55.4938 161.356 55.4938ZM161.57 49.2854V54.9086L166.44 52.0966V46.4733L161.57 49.2854Z" fill="#272245"/>
<path d="M161.356 49.3756C161.32 49.3756 161.282 49.3658 161.249 49.3471L155.951 46.2881C155.884 46.2499 155.843 46.1792 155.843 46.1028C155.843 46.0264 155.884 45.9556 155.951 45.9175L161.25 42.8584C161.316 42.8202 161.398 42.8202 161.464 42.8584L166.762 45.9175C166.829 45.9556 166.87 46.0264 166.87 46.1028C166.87 46.1792 166.829 46.2499 166.762 46.2881L161.463 49.3471C161.43 49.3667 161.394 49.3756 161.356 49.3756ZM156.486 46.1019L161.356 48.914L166.226 46.1019L161.356 43.2899L156.486 46.1019Z" fill="#272245"/>
<path d="M161.356 55.4938C161.318 55.4938 161.282 55.484 161.249 55.4653L155.95 52.4062C155.883 52.368 155.842 52.2973 155.842 52.2209V46.1027C155.842 46.0263 155.883 45.9556 155.95 45.9174C156.016 45.8792 156.098 45.8792 156.164 45.9174L161.463 48.9765C161.53 49.0147 161.57 49.0854 161.57 49.1618V55.28C161.57 55.3564 161.53 55.4271 161.463 55.4653C161.43 55.4848 161.393 55.4938 161.356 55.4938ZM156.271 52.0966L161.141 54.9086V49.2854L156.271 46.4733V52.0966Z" fill="#272245"/>
<path d="M127.129 13.3728L129.425 12.0472V9.39612L127.129 10.7217V13.3728Z" fill="url(#paint13_linear_1069_4233)"/>
<path d="M127.129 10.7216L129.425 9.39607L127.129 8.0697L124.832 9.39607L127.129 10.7216Z" fill="#FCA9D3"/>
<path d="M124.832 12.0472L127.129 13.3728V10.7217L124.832 9.39612V12.0472Z" fill="url(#paint14_linear_1069_4233)"/>
<path d="M127.129 15.4346L131.21 13.0777V8.36475L127.129 10.7216V15.4346Z" fill="#FFDE8A"/>
<path d="M127.129 10.7217L131.21 8.36475L127.129 6.00867L123.046 8.36475L127.129 10.7217Z" fill="#FCA9D3"/>
<path d="M123.046 13.0777L127.129 15.4346V10.7216L123.046 8.36475V13.0777Z" fill="url(#paint15_linear_1069_4233)"/>
<path d="M127.129 15.5997C127.1 15.5997 127.072 15.5924 127.046 15.5777C126.995 15.5485 126.963 15.494 126.963 15.4347V10.7217C126.963 10.6624 126.995 10.6079 127.046 10.5787L131.127 8.22177C131.179 8.19251 131.241 8.19251 131.292 8.22177C131.344 8.25103 131.375 8.30548 131.375 8.36481V13.0778C131.375 13.1371 131.344 13.1916 131.292 13.2208L127.211 15.5777C127.186 15.5924 127.157 15.5997 127.128 15.5997H127.129ZM127.294 10.8168V15.1486L131.045 12.9827V8.65089L127.294 10.8168Z" fill="#272245"/>
<path d="M127.129 10.8867C127.1 10.8867 127.072 10.8793 127.046 10.8647L122.964 8.50782C122.913 8.47856 122.881 8.42411 122.881 8.36478C122.881 8.30545 122.913 8.251 122.964 8.22174L127.046 5.86484C127.097 5.83558 127.16 5.83558 127.211 5.86484L131.292 8.22174C131.344 8.251 131.375 8.30545 131.375 8.36478C131.375 8.42411 131.344 8.47856 131.292 8.50782L127.211 10.8647C127.186 10.8793 127.157 10.8867 127.128 10.8867H127.129ZM123.377 8.36478L127.129 10.5307L130.88 8.36478L127.129 6.19887L123.377 8.36478Z" fill="#272245"/>
<path d="M127.129 15.5997C127.1 15.5997 127.072 15.5924 127.046 15.5777L122.964 13.2208C122.913 13.1916 122.881 13.1371 122.881 13.0778V8.36481C122.881 8.30548 122.913 8.25103 122.964 8.22177C123.016 8.19251 123.078 8.19251 123.129 8.22177L127.211 10.5787C127.262 10.6079 127.294 10.6624 127.294 10.7217V15.4347C127.294 15.494 127.262 15.5485 127.211 15.5777C127.186 15.5924 127.157 15.5997 127.128 15.5997H127.129ZM123.212 12.9827L126.964 15.1486V10.8168L123.212 8.65089V12.9827Z" fill="#272245"/>
<path d="M135.645 98.7438L139.146 96.7225V92.6801L135.645 94.7013V98.7438Z" fill="url(#paint16_linear_1069_4233)"/>
<path d="M135.645 94.7013L139.146 92.6801L135.645 90.6588L132.143 92.6801L135.645 94.7013Z" fill="#FCA9D3"/>
<path d="M132.143 96.7225L135.645 98.7438V94.7013L132.143 92.6801V96.7225Z" fill="url(#paint17_linear_1069_4233)"/>
<path d="M135.645 101.887L141.868 98.2944V91.1083L135.645 94.7013V101.887Z" fill="#FFDE8A"/>
<path d="M135.645 94.7012L141.868 91.1082L135.645 87.5151L129.422 91.1082L135.645 94.7012Z" fill="#FCA9D3"/>
<path d="M129.422 98.2944L135.645 101.887V94.7013L129.422 91.1083V98.2944Z" fill="url(#paint18_linear_1069_4233)"/>
<path d="M135.645 102.139C135.601 102.139 135.558 102.128 135.519 102.106C135.441 102.061 135.393 101.978 135.393 101.888V94.7021C135.393 94.6118 135.441 94.529 135.519 94.4843L141.742 90.8912C141.82 90.8465 141.916 90.8465 141.994 90.8912C142.072 90.9359 142.12 91.0196 142.12 91.109V98.2951C142.12 98.3853 142.072 98.4682 141.994 98.5129L135.771 102.106C135.732 102.129 135.688 102.139 135.645 102.139ZM135.896 94.8467V101.452L141.616 98.1488V91.5438L135.896 94.8467Z" fill="#272245"/>
<path d="M135.645 94.9532C135.601 94.9532 135.558 94.9418 135.519 94.9199L129.296 91.3268C129.218 91.2821 129.17 91.1984 129.17 91.109C129.17 91.0196 129.218 90.9359 129.296 90.8912L135.519 87.2982C135.597 87.2535 135.693 87.2535 135.771 87.2982L141.994 90.8912C142.072 90.9359 142.12 91.0196 142.12 91.109C142.12 91.1984 142.072 91.2821 141.994 91.3268L135.771 94.9199C135.732 94.9427 135.688 94.9532 135.645 94.9532ZM129.925 91.1082L135.645 94.4111L141.365 91.1082L135.645 87.8053L129.925 91.1082Z" fill="#272245"/>
<path d="M135.645 102.139C135.601 102.139 135.558 102.128 135.519 102.106L129.295 98.5129C129.217 98.4682 129.169 98.3845 129.169 98.2951V91.109C129.169 91.0188 129.217 90.9359 129.295 90.8912C129.373 90.8465 129.469 90.8465 129.547 90.8912L135.771 94.4843C135.849 94.529 135.896 94.6127 135.896 94.7021V101.888C135.896 101.978 135.849 102.061 135.771 102.106C135.732 102.129 135.688 102.139 135.645 102.139ZM129.673 98.1496L135.393 101.453V94.8475L129.673 91.5446V98.1496Z" fill="#272245"/>
<defs>
<linearGradient id="paint0_linear_1069_4233" x1="56.7436" y1="20.9531" x2="120.695" y2="20.9531" gradientUnits="userSpaceOnUse">
<stop stop-color="#32DBB2"/>
<stop offset="1" stop-color="#4BE3C8"/>
</linearGradient>
<linearGradient id="paint1_linear_1069_4233" x1="27.492" y1="50.5233" x2="24.2842" y2="50.5233" gradientUnits="userSpaceOnUse">
<stop stop-color="#3EDBB5"/>
<stop offset="1" stop-color="#63E3CC"/>
</linearGradient>
<linearGradient id="paint2_linear_1069_4233" x1="24.2842" y1="50.5233" x2="21.0764" y2="50.5233" gradientUnits="userSpaceOnUse">
<stop stop-color="#32DBB2"/>
<stop offset="1" stop-color="#4BE3C8"/>
</linearGradient>
<linearGradient id="paint3_linear_1069_4233" x1="24.2842" y1="51.2433" x2="18.5821" y2="51.2433" gradientUnits="userSpaceOnUse">
<stop stop-color="#32DBB2"/>
<stop offset="1" stop-color="#4BE3C8"/>
</linearGradient>
<linearGradient id="paint4_linear_1069_4233" x1="52.9141" y1="6.53774" x2="50.2053" y2="6.53774" gradientUnits="userSpaceOnUse">
<stop stop-color="#3EDBB5"/>
<stop offset="1" stop-color="#63E3CC"/>
</linearGradient>
<linearGradient id="paint5_linear_1069_4233" x1="50.2053" y1="6.53774" x2="47.4956" y2="6.53774" gradientUnits="userSpaceOnUse">
<stop stop-color="#32DBB2"/>
<stop offset="1" stop-color="#4BE3C8"/>
</linearGradient>
<linearGradient id="paint6_linear_1069_4233" x1="50.2052" y1="7.14568" x2="45.389" y2="7.14568" gradientUnits="userSpaceOnUse">
<stop stop-color="#32DBB2"/>
<stop offset="1" stop-color="#4BE3C8"/>
</linearGradient>
<linearGradient id="paint7_linear_1069_4233" x1="42.7875" y1="78.5086" x2="39.9535" y2="78.5086" gradientUnits="userSpaceOnUse">
<stop stop-color="#3EDBB5"/>
<stop offset="1" stop-color="#63E3CC"/>
</linearGradient>
<linearGradient id="paint8_linear_1069_4233" x1="39.9535" y1="78.5086" x2="37.1195" y2="78.5086" gradientUnits="userSpaceOnUse">
<stop stop-color="#32DBB2"/>
<stop offset="1" stop-color="#4BE3C8"/>
</linearGradient>
<linearGradient id="paint9_linear_1069_4233" x1="39.9535" y1="79.1449" x2="34.9163" y2="79.1449" gradientUnits="userSpaceOnUse">
<stop stop-color="#32DBB2"/>
<stop offset="1" stop-color="#4BE3C8"/>
</linearGradient>
<linearGradient id="paint10_linear_1069_4233" x1="164.337" y1="50.0226" x2="161.356" y2="50.0226" gradientUnits="userSpaceOnUse">
<stop stop-color="#3EDBB5"/>
<stop offset="1" stop-color="#63E3CC"/>
</linearGradient>
<linearGradient id="paint11_linear_1069_4233" x1="161.356" y1="50.0226" x2="158.376" y2="50.0226" gradientUnits="userSpaceOnUse">
<stop stop-color="#32DBB2"/>
<stop offset="1" stop-color="#4BE3C8"/>
</linearGradient>
<linearGradient id="paint12_linear_1069_4233" x1="161.356" y1="50.6914" x2="156.058" y2="50.6914" gradientUnits="userSpaceOnUse">
<stop stop-color="#32DBB2"/>
<stop offset="1" stop-color="#4BE3C8"/>
</linearGradient>
<linearGradient id="paint13_linear_1069_4233" x1="129.426" y1="11.3849" x2="127.129" y2="11.3849" gradientUnits="userSpaceOnUse">
<stop stop-color="#3EDBB5"/>
<stop offset="1" stop-color="#63E3CC"/>
</linearGradient>
<linearGradient id="paint14_linear_1069_4233" x1="127.129" y1="11.3849" x2="124.833" y2="11.3849" gradientUnits="userSpaceOnUse">
<stop stop-color="#32DBB2"/>
<stop offset="1" stop-color="#4BE3C8"/>
</linearGradient>
<linearGradient id="paint15_linear_1069_4233" x1="127.129" y1="11.9001" x2="123.047" y2="11.9001" gradientUnits="userSpaceOnUse">
<stop stop-color="#32DBB2"/>
<stop offset="1" stop-color="#4BE3C8"/>
</linearGradient>
<linearGradient id="paint16_linear_1069_4233" x1="139.146" y1="95.7123" x2="135.645" y2="95.7123" gradientUnits="userSpaceOnUse">
<stop stop-color="#3EDBB5"/>
<stop offset="1" stop-color="#63E3CC"/>
</linearGradient>
<linearGradient id="paint17_linear_1069_4233" x1="135.645" y1="95.7123" x2="132.143" y2="95.7123" gradientUnits="userSpaceOnUse">
<stop stop-color="#32DBB2"/>
<stop offset="1" stop-color="#4BE3C8"/>
</linearGradient>
<linearGradient id="paint18_linear_1069_4233" x1="135.645" y1="96.4983" x2="129.422" y2="96.4983" gradientUnits="userSpaceOnUse">
<stop stop-color="#32DBB2"/>
<stop offset="1" stop-color="#4BE3C8"/>
</linearGradient>
</defs>
</svg>
