<svg width="25" height="19" viewBox="0 0 25 19" fill="none" xmlns="http://www.w3.org/2000/svg">
<g clip-path="url(#clip0_1050_8908)">
<rect width="25" height="19" fill="#E7E2F8"/>
<path d="M0.000488281 18.257V0.743047C0.000488281 0.332352 0.336524 0 0.751771 0H17.2146C17.6293 0 17.9658 0.332352 17.9658 0.743047V4.52835C17.9658 4.93856 17.6298 5.2714 17.2146 5.2714C16.7998 5.2714 16.4633 4.93905 16.4633 4.52835V1.70263C16.4633 1.58293 16.3654 1.48561 16.2438 1.48561H1.7215C1.60047 1.48561 1.50207 1.58244 1.50207 1.70263V17.2979C1.50207 17.4176 1.59998 17.5149 1.7215 17.5149H16.2438C16.3649 17.5149 16.4633 17.418 16.4633 17.2979V14.4721C16.4633 14.0619 16.7993 13.7291 17.2146 13.7291C17.6293 13.7291 17.9658 14.0614 17.9658 14.4721V18.2574C17.9658 18.6677 17.6298 19.0005 17.2146 19.0005H0.751771C0.337016 19.0005 0.000488281 18.6681 0.000488281 18.2574V18.257Z" fill="#7453FD"/>
<path d="M19.6211 13.0318L21.9851 10.7175C22.1578 10.5487 22.0368 10.2577 21.7938 10.2577H10.4876C10.0729 10.2577 9.73633 9.92532 9.73633 9.51462V9.48445C9.73633 9.07425 10.0724 8.74141 10.4876 8.74141H21.7308C21.9728 8.74141 22.0944 8.45188 21.9231 8.28254L19.6221 6.00668C19.3269 5.71472 19.3288 5.24077 19.627 4.95124L19.6285 4.94978C19.9227 4.66414 20.3945 4.66657 20.6858 4.95464L24.7802 9.00417C25.0734 9.29419 25.0734 9.76474 24.7802 10.0548L20.6932 14.097C20.3999 14.387 19.9242 14.387 19.6309 14.097L19.6186 14.0848C19.3244 13.7938 19.3254 13.3213 19.6216 13.0313L19.6211 13.0318Z" fill="#7453FD"/>
</g>
<defs>
<clipPath id="clip0_1050_8908">
<rect width="25" height="19" fill="white"/>
</clipPath>
</defs>
</svg>
