<svg width="26" height="27" viewBox="0 0 26 27" fill="none" xmlns="http://www.w3.org/2000/svg">
<g clip-path="url(#clip0_838_1069)">
<path d="M22.6032 0.540527H3.92343C2.04676 0.540527 0.526367 2.05165 0.526367 3.9169V17.4207C0.526367 19.2844 2.04676 20.7971 3.92343 20.7971H5.62115V26.7045L11.5648 20.7971H22.6032C24.4782 20.7971 26.0003 19.286 26.0003 17.4207V3.9169C26.0003 2.05328 24.4799 0.540527 22.6032 0.540527Z" fill="#7EB3FF"/>
<path d="M13.0066 15.115C10.4042 15.115 8.28613 13.0099 8.28613 10.4234C8.28613 7.83682 10.4042 5.73169 13.0066 5.73169C15.609 5.73169 17.727 7.83682 17.727 10.4234C17.727 13.0099 15.609 15.115 13.0066 15.115ZM13.0066 8.07671C11.7045 8.07671 10.6455 9.12927 10.6455 10.4234C10.6455 11.7174 11.7045 12.77 13.0066 12.77C14.3086 12.77 15.3676 11.7174 15.3676 10.4234C15.3676 9.12927 14.3086 8.07671 13.0066 8.07671Z" fill="#A1F0C4"/>
<path d="M14.1882 3.38501H11.8271V6.90498H14.1882V3.38501Z" fill="#A1F0C4"/>
<path d="M14.1882 13.9417H11.8271V17.4616H14.1882V13.9417Z" fill="#A1F0C4"/>
<path d="M20.0894 9.25H16.5479V11.5966H20.0894V9.25Z" fill="#A1F0C4"/>
<path d="M9.46636 9.25H5.9248V11.5966H9.46636V9.25Z" fill="#A1F0C4"/>
<path d="M16.3466 12.0819L14.6768 13.741L17.1806 16.2304L18.8504 14.5714L16.3466 12.0819Z" fill="#A1F0C4"/>
<path d="M8.83454 4.61557L7.16504 6.2749L9.66813 8.76275L11.3376 7.10341L8.83454 4.61557Z" fill="#A1F0C4"/>
<path d="M17.1805 4.61764L14.6758 7.1062L16.345 8.76582L18.8497 6.27726L17.1805 4.61764Z" fill="#A1F0C4"/>
<path d="M9.66911 12.0844L7.16602 14.5723L8.83552 16.2316L11.3386 13.7438L9.66911 12.0844Z" fill="#A1F0C4"/>
</g>
<defs>
<clipPath id="clip0_838_1069">
<rect width="25.4739" height="26.1624" fill="white" transform="translate(0.526367 0.540527)"/>
</clipPath>
</defs>
</svg>
