<svg width="12" height="13" viewBox="0 0 12 13" fill="none" xmlns="http://www.w3.org/2000/svg">
<path d="M4.91192 11C4.01875 11 3.30786 10.7487 2.77925 10.2462C2.25975 9.74366 2 9.03555 2 8.12186H3.44913C3.44913 8.57871 3.55849 8.95789 3.77723 9.25941C4.00508 9.56092 4.3742 9.71168 4.88458 9.71168C5.38585 9.71168 5.7413 9.57006 5.95092 9.28682C6.16054 8.99444 6.26535 8.62439 6.26535 8.17669V1.85681H7.71448V8.17669C7.71448 9.08124 7.46384 9.78021 6.96257 10.2736C6.4613 10.7579 5.77775 11 4.91192 11Z" fill="#0F0056"/>
<rect x="3.90137" y="5.06372" width="6.09887" height="1.21977" fill="#0F0056"/>
<rect x="3.90137" y="3.03076" width="6.09887" height="1.21977" fill="#0F0056"/>
<rect x="0.5" y="0.5" width="11" height="12" stroke="#0F0056"/>
</svg>
