<svg width="17" height="20" viewBox="0 0 17 20" fill="none" xmlns="http://www.w3.org/2000/svg">
<path d="M5.98315 20C4.14794 20 2.68727 19.485 1.60112 18.4551C0.533708 17.4251 0 15.9738 0 14.1011H2.97753C2.97753 15.0375 3.20225 15.8146 3.65169 16.4326C4.11985 17.0506 4.87828 17.3596 5.92697 17.3596C6.95693 17.3596 7.68727 17.0693 8.11798 16.4888C8.54869 15.8895 8.76404 15.1311 8.76404 14.2135V0H11.7416V14.2135C11.7416 16.0674 11.2266 17.5 10.1966 18.5112C9.16667 19.5037 7.76217 20 5.98315 20Z" fill="white"/>
<rect x="3.89697" y="7.83348" width="12.5" height="2.5" fill="white"/>
<rect x="3.89697" y="3.66666" width="12.5" height="2.5" fill="white"/>
</svg>
