<svg width="22" height="22" viewBox="0 0 22 22" fill="none" xmlns="http://www.w3.org/2000/svg">
<path d="M4.125 19.25C3.75833 19.25 3.4375 19.1125 3.1625 18.8375C2.8875 18.5625 2.75 18.2417 2.75 17.875V4.125C2.75 3.75833 2.8875 3.4375 3.1625 3.1625C3.4375 2.8875 3.75833 2.75 4.125 2.75H13.1542V4.125H4.125V17.875H17.875V8.84583H19.25V17.875C19.25 18.2417 19.1125 18.5625 18.8375 18.8375C18.5625 19.1125 18.2417 19.25 17.875 19.25H4.125ZM7.35625 15.6521V14.2771H14.6667V15.6521H7.35625ZM7.35625 12.7417V11.3667H14.6667V12.7417H7.35625ZM7.35625 9.83125V8.45625H14.6667V9.83125H7.35625ZM15.8583 8.15833V6.14167H13.8417V4.76667H15.8583V2.75H17.2333V4.76667H19.25V6.14167H17.2333V8.15833H15.8583Z" fill="#5136C2"/>
</svg>
