<svg width="27" height="27" viewBox="0 0 27 27" fill="none" xmlns="http://www.w3.org/2000/svg">
<g clip-path="url(#clip0_0_3561)">
<path d="M7.31239 5.62538H6.18717V2.81231H3.37488V1.68787H7.31239V5.62538Z" fill="#A1F0C4"/>
<path d="M13.4996 27C6.05573 27 0 20.9435 0 13.4996C0 11.1474 0.614259 8.83121 1.77626 6.80142C2.90306 4.83345 4.52126 3.16595 6.45637 1.98047L7.04402 2.93981C5.27011 4.02669 3.78571 5.55569 2.75282 7.36012C1.68784 9.22012 1.12523 11.343 1.12523 13.4996C1.12523 20.3229 6.67625 25.8747 13.5004 25.8747C14.6608 25.8747 15.8088 25.7143 16.9129 25.399L17.2219 26.4804C16.0169 26.8247 14.7649 27 13.5004 27H13.4996Z" fill="#A1F0C4"/>
<path d="M20.4982 25.0469L19.9145 24.0853C21.7001 23.0007 23.1947 21.4709 24.2354 19.6602C25.3082 17.7948 25.8755 15.6648 25.8755 13.4997C25.8755 6.6763 20.3245 1.1245 13.5004 1.1245C12.3344 1.1245 11.1818 1.28569 10.0722 1.60495L9.7616 0.523539C10.9713 0.176112 12.2296 -0.000732422 13.5004 -0.000732422C20.9442 -0.000732422 27 6.055 27 13.4989C27 15.8604 26.381 18.1845 25.2104 20.2205C24.075 22.1947 22.4458 23.863 20.4982 25.0462V25.0469Z" fill="#A1F0C4"/>
<path d="M23.6251 25.3122H19.6876V21.3746H20.8121V24.1877H23.6251V25.3122Z" fill="#A1F0C4"/>
<g clip-path="url(#clip1_0_3561)">
<path d="M22 17.3205L14.0029 21V11.9111L22 8.23218V17.3205Z" fill="#0561FC"/>
<path d="M6 17.3205L13.9971 21V11.9111L6 8.23218V17.3205Z" fill="#7EB3FF"/>
<path d="M10.6592 14.377V9.34452L8.48022 8.34216V13.3746L10.6592 14.377Z" fill="#6DCB97"/>
<path d="M13.9971 5L22 8.23222L13.9971 11.9111L6 8.23222L13.9971 5Z" fill="#9AC7F7"/>
<path d="M18.8116 6.95203L16.8723 6.14746L8.48022 9.38433L10.6808 10.3826L18.8116 6.95203Z" fill="#A1F0C4"/>
</g>
</g>
<defs>
<clipPath id="clip0_0_3561">
<rect width="27" height="27" fill="white"/>
</clipPath>
<clipPath id="clip1_0_3561">
<rect width="16" height="16" fill="white" transform="translate(6 5)"/>
</clipPath>
</defs>
</svg>
