<svg width="23" height="23" viewBox="0 0 23 23" fill="none" xmlns="http://www.w3.org/2000/svg">
<g clip-path="url(#clip0_1050_8911)">
<rect width="22.6615" height="22.6599" fill="#E7E2F8"/>
<path fill-rule="evenodd" clip-rule="evenodd" d="M22.146 9.13025L18.8887 8.20032L20.5342 5.2392C20.6881 4.96207 20.6394 4.61607 20.4149 4.39157L18.269 2.24617C18.0445 2.02167 17.699 1.97408 17.4219 2.12748L14.4602 3.77292L13.5297 0.515074C13.443 0.210509 13.1641 0 12.8473 0H9.8128C9.49592 0 9.2171 0.210509 9.13032 0.515074L8.19983 3.77292L5.23871 2.12748C4.96158 1.97352 4.61615 2.02167 4.39108 2.24617L2.24568 4.39157C2.02118 4.61607 1.97303 4.96151 2.12699 5.2392L3.77187 8.20032L0.514586 9.13025C0.21002 9.21703 -0.000488281 9.49584 -0.000488281 9.81273V12.8472C-0.000488281 13.1641 0.21002 13.4429 0.514586 13.5297L3.77243 14.4602L2.12699 17.4213C1.97303 17.6984 2.02118 18.0438 2.24568 18.2683L4.39108 20.4143C4.61559 20.6382 4.96102 20.6864 5.23871 20.533L8.19983 18.8876L9.13032 22.1443C9.2171 22.4488 9.49592 22.6594 9.8128 22.6594H12.8473C13.1641 22.6594 13.443 22.4488 13.5297 22.1443L14.4602 18.8876L17.4219 20.533C17.6985 20.6875 18.0445 20.6382 18.269 20.4143L20.4149 18.2683C20.6389 18.0444 20.687 17.699 20.5336 17.4213L18.8882 14.4602L22.146 13.5297C22.4506 13.4429 22.6611 13.1641 22.6611 12.8472V9.81273C22.6611 9.49584 22.4506 9.21759 22.146 9.13025ZM21.2402 12.3125L17.638 13.3421C17.4297 13.4015 17.2601 13.5526 17.1767 13.7525C17.0938 13.9529 17.1073 14.1802 17.212 14.3695L19.0315 17.6447L17.6436 19.0331L14.3684 17.2136C14.1786 17.1083 13.9519 17.0949 13.7514 17.1777C13.5516 17.2612 13.4004 17.4308 13.3411 17.6391L12.312 21.2407H10.3491L9.32012 17.6391C9.26077 17.4308 9.10961 17.2612 8.90974 17.1777C8.70931 17.0949 8.482 17.1083 8.29277 17.2136L5.01757 19.0331L3.62911 17.6447L5.44866 14.3695C5.55336 14.1797 5.56679 13.9529 5.48393 13.7525C5.40107 13.5526 5.232 13.4015 5.02317 13.3421L1.42101 12.3125V10.3491L5.02261 9.32005C5.23088 9.2607 5.40051 9.10898 5.48393 8.90911C5.56679 8.70924 5.55392 8.48193 5.44866 8.2927L3.62911 5.0175L5.01701 3.62959L8.29277 5.44915C8.482 5.55441 8.70875 5.56784 8.90974 5.48442C9.10961 5.40156 9.26077 5.23248 9.32012 5.02365L10.3491 1.42149H12.312L13.3411 5.02365C13.4004 5.23192 13.5521 5.401 13.7514 5.48442C13.9519 5.56784 14.1792 5.55441 14.3684 5.44915L17.6436 3.62959L19.0315 5.0175L17.2125 8.2927C17.1073 8.48193 17.0938 8.70868 17.1767 8.90911C17.2601 9.10898 17.4292 9.2607 17.638 9.32005L21.2402 10.3491V12.3125Z" fill="#7453FD"/>
<path fill-rule="evenodd" clip-rule="evenodd" d="M14.6352 8.02621C13.7523 7.14331 12.5794 6.65735 11.3309 6.65735C8.75384 6.65735 6.65771 8.75404 6.65771 11.3311C6.65771 13.9081 8.7544 16.0031 11.3309 16.0031C12.5794 16.0031 13.7529 15.5172 14.6352 14.6354C15.5181 13.7525 16.0041 12.5796 16.0041 11.3311C16.0041 10.0826 15.5181 8.90856 14.6352 8.02621ZM11.3309 14.5833C9.53709 14.5833 8.07753 13.1238 8.07753 11.3311C8.07753 9.53841 9.53709 8.07772 11.3309 8.07772C13.1247 8.07772 14.5837 9.53729 14.5837 11.3311C14.5837 13.1249 13.1253 14.5833 11.3309 14.5833Z" fill="#7453FD"/>
</g>
<defs>
<clipPath id="clip0_1050_8911">
<rect width="22.6615" height="22.6599" fill="white"/>
</clipPath>
</defs>
</svg>
