<svg width="33" height="19" viewBox="0 0 33 19" fill="none" xmlns="http://www.w3.org/2000/svg">
<path d="M27.3133 18.0104H1.72775C0.86393 18.0104 0.164062 17.3094 0.164062 16.4442V1.56623C0.164062 0.701004 0.86393 0 1.72775 0H31.4366C32.3005 0 33.0003 0.701004 33.0003 1.56623V16.4454C33.0003 17.3106 32.3005 18.0116 31.4366 18.0116H25.4939" fill="#7EB3FF"/>
<path d="M7.20062 12.5296H4.07324V10.9634H5.63693V6.26471H4.07324V4.69849H7.20062V12.5296Z" fill="#A1F0C4"/>
<path d="M6.41878 7.83105H4.07324V9.39728H6.41878V7.83105Z" fill="#A1F0C4"/>
<path d="M11.8898 12.5296H8.76367V4.69849H11.8898V6.26471H10.3261V10.9634H11.8898V12.5296Z" fill="#A1F0C4"/>
<path d="M11.8914 7.83105H9.5459V9.39728H11.8914V7.83105Z" fill="#A1F0C4"/>
<path d="M9.54633 6.26489H6.41895V7.83112H9.54633V6.26489Z" fill="#A1F0C4"/>
<path d="M9.54633 9.39722H6.41895V10.9634H9.54633V9.39722Z" fill="#A1F0C4"/>
<path d="M29.8723 3.13232H28.3086V4.69855H29.8723V3.13232Z" fill="#EAF4FE"/>
<path d="M26.7456 3.13232H19.709V4.69855H26.7456V3.13232Z" fill="#EAF4FE"/>
<path d="M29.8723 7.83105H28.3086V9.39728H29.8723V7.83105Z" fill="#EAF4FE"/>
<path d="M29.8726 10.9636H18.9268V12.5299H29.8726V10.9636Z" fill="#EAF4FE"/>
<path d="M26.7453 7.83105H25.1816V9.39728H26.7453V7.83105Z" fill="#EAF4FE"/>
<path d="M23.6174 7.83105H22.0537V9.39728H23.6174V7.83105Z" fill="#EAF4FE"/>
<path d="M20.4904 7.83105H18.9268V9.39728H20.4904V7.83105Z" fill="#EAF4FE"/>
<path d="M17.3635 7.83105H15.7998V9.39728H17.3635V7.83105Z" fill="#EAF4FE"/>
</svg>
