<svg width="32" height="28" viewBox="0 0 32 28" fill="none" xmlns="http://www.w3.org/2000/svg">
<g id="Icons" clip-path="url(#clip0_1_7202)">
<g id="Group">
<path id="Vector" d="M22.8674 15.6575C23.7952 11.776 21.3605 7.88662 17.4293 6.97048C13.4981 6.05434 9.55905 8.45832 8.63119 12.3399C7.70334 16.2215 10.1381 20.1108 14.0693 21.027C18.0005 21.9431 21.9395 19.5391 22.8674 15.6575Z" fill="#7EB3FF"/>
<path id="Vector_2" d="M15.7496 21.8449C11.3679 21.8449 7.80273 18.3247 7.80273 13.9984C7.80273 9.67203 11.3679 6.15186 15.7496 6.15186C20.1312 6.15186 23.6964 9.67203 23.6964 13.9984C23.6964 18.3247 20.1312 21.8449 15.7496 21.8449ZM15.7496 7.40319C12.0665 7.40319 9.06908 10.3618 9.06908 13.9994C9.06908 17.637 12.0655 20.5955 15.7496 20.5955C19.4337 20.5955 22.4301 17.637 22.4301 13.9994C22.4301 10.3618 19.4337 7.40319 15.7496 7.40319Z" fill="#7EB3FF"/>
</g>
<g id="Group_2">
<g id="Group_3">
<path id="Vector_3" d="M2.9766 16.6608C1.3357 16.6608 0 15.3419 0 13.7217C0 12.1016 1.3357 10.7827 2.9766 10.7827C4.61749 10.7827 5.95319 12.1016 5.95319 13.7217C5.95319 15.3419 4.61749 16.6608 2.9766 16.6608ZM2.9766 12.0331C2.03328 12.0331 1.26634 12.7903 1.26634 13.7217C1.26634 14.6532 2.03328 15.4104 2.9766 15.4104C3.91991 15.4104 4.68685 14.6532 4.68685 13.7217C4.68685 12.7903 3.91991 12.0331 2.9766 12.0331Z" fill="#7EB3FF"/>
<path id="Vector_4" d="M8.87214 13.2354H5.08203V14.4857H8.87214V13.2354Z" fill="#7EB3FF"/>
</g>
<g id="Group_4">
<path id="Vector_5" d="M9.11501 27.7231C8.59876 27.7231 8.09044 27.589 7.63166 27.3278C6.943 26.9355 6.45054 26.3015 6.24443 25.5432C6.03833 24.785 6.14435 23.9925 6.5417 23.3135C6.93904 22.6336 7.58113 22.1473 8.34906 21.9438C9.11699 21.7403 9.9196 21.845 10.6073 22.2373C11.2959 22.6297 11.7884 23.2636 11.9945 24.0219C12.2006 24.7801 12.0946 25.5726 11.6972 26.2516C11.2999 26.9316 10.6578 27.4178 9.88987 27.6213C9.63323 27.6888 9.37362 27.7231 9.11501 27.7231ZM9.12293 23.0934C8.9743 23.0934 8.82468 23.113 8.67704 23.1521C8.2361 23.2685 7.86749 23.5483 7.6386 23.9387C7.4097 24.3291 7.34926 24.784 7.46817 25.2204C7.58608 25.6558 7.86947 26.0197 8.26483 26.2457C8.66019 26.4717 9.12194 26.5314 9.56288 26.415C10.0038 26.2985 10.3734 26.0187 10.6013 25.6284C10.8302 25.238 10.8907 24.7831 10.7727 24.3467C10.6548 23.9103 10.3714 23.5464 9.97608 23.3214C9.7125 23.1707 9.4202 23.0944 9.12392 23.0944L9.12293 23.0934Z" fill="#7EB3FF"/>
<path id="Vector_6" d="M11.6402 19.4969L9.74512 22.7378L10.8418 23.363L12.7369 20.1221L11.6402 19.4969Z" fill="#7EB3FF"/>
</g>
<g id="Group_5">
<path id="Vector_7" d="M21.8983 27.9999C21.6397 27.9999 21.3791 27.9666 21.1234 27.8982C20.3555 27.6947 19.7134 27.2084 19.3161 26.5284C18.4956 25.1245 18.9841 23.3243 20.406 22.5132C21.827 21.7031 23.6512 22.1854 24.4716 23.5894C25.2921 24.9934 24.8036 26.7936 23.3816 27.6046C22.9229 27.8659 22.4136 27.9999 21.8983 27.9999ZM21.0382 23.5972C20.2217 24.0629 19.9403 25.0971 20.412 25.9042C20.6399 26.2946 21.0095 26.5744 21.4504 26.6908C21.8914 26.8073 22.3521 26.7476 22.7485 26.5226C23.565 26.0569 23.8464 25.0217 23.3747 24.2156C22.9031 23.4094 21.8557 23.1315 21.0382 23.5972Z" fill="#7EB3FF"/>
<path id="Vector_8" d="M19.6162 19.637L18.5195 20.2622L20.4146 23.5031L21.5113 22.8779L19.6162 19.637Z" fill="#7EB3FF"/>
</g>
<g id="Group_6">
<path id="Vector_9" d="M28.5235 17.2155C26.8826 17.2155 25.5469 15.8966 25.5469 14.2764C25.5469 12.6562 26.8826 11.3374 28.5235 11.3374C30.1644 11.3374 31.5001 12.6562 31.5001 14.2764C31.5001 15.8966 30.1644 17.2155 28.5235 17.2155ZM28.5235 12.5878C27.5802 12.5878 26.8132 13.345 26.8132 14.2764C26.8132 15.2078 27.5802 15.9651 28.5235 15.9651C29.4668 15.9651 30.2337 15.2078 30.2337 14.2764C30.2337 13.345 29.4668 12.5878 28.5235 12.5878Z" fill="#7EB3FF"/>
<path id="Vector_10" d="M26.418 13.5122H22.6279V14.7626H26.418V13.5122Z" fill="#7EB3FF"/>
</g>
<g id="Group_7">
<path id="Vector_11" d="M22.3748 6.15564C21.8585 6.15564 21.3502 6.02161 20.8914 5.76038C20.2028 5.36806 19.7103 4.73407 19.5042 3.97583C19.2981 3.2176 19.4041 2.42512 19.8015 1.74613C20.6219 0.343143 22.4461 -0.140173 23.868 0.670897C24.5567 1.06322 25.0492 1.69721 25.2553 2.45545C25.4614 3.21368 25.3553 4.00616 24.958 4.68515C24.5606 5.36512 23.9186 5.85137 23.1506 6.05487C22.894 6.12238 22.6344 6.15662 22.3758 6.15662L22.3748 6.15564ZM22.3827 1.52697C21.7911 1.52697 21.2154 1.83027 20.8984 2.37131C20.6705 2.76168 20.609 3.21662 20.7279 3.65297C20.8458 4.08835 21.1292 4.4523 21.5246 4.6783C21.92 4.90431 22.3817 4.96399 22.8226 4.84658C23.2636 4.73016 23.6322 4.45034 23.8611 4.05997C24.09 3.6696 24.1504 3.21466 24.0325 2.77831C23.9146 2.34195 23.6312 1.978 23.2358 1.75298C22.9673 1.59937 22.674 1.52697 22.3837 1.52697H22.3827Z" fill="#7EB3FF"/>
<path id="Vector_12" d="M20.6568 4.63312L18.7617 7.87402L19.8584 8.4992L21.7535 5.2583L20.6568 4.63312Z" fill="#7EB3FF"/>
</g>
<g id="Group_8">
<path id="Vector_13" d="M9.61119 5.87881C9.35258 5.87881 9.09197 5.84555 8.83633 5.77706C8.0684 5.57356 7.42631 5.08731 7.02897 4.40734C6.20852 3.00436 6.69702 1.20318 8.11893 0.392107C9.54084 -0.417984 11.3641 0.0643528 12.1855 1.46832C13.0059 2.8713 12.5174 4.67248 11.0955 5.48257C10.6368 5.7438 10.1274 5.87783 9.61219 5.87783L9.61119 5.87881ZM9.60327 1.25014C9.31294 1.25014 9.01964 1.32254 8.75111 1.47614C7.93463 1.94185 7.65322 2.97696 8.12488 3.78314C8.35278 4.17351 8.72238 4.45333 9.16332 4.56975C9.60525 4.68618 10.066 4.6265 10.4614 4.40147C10.8567 4.17547 11.1401 3.81151 11.258 3.37614C11.3759 2.94076 11.3155 2.48582 11.0876 2.09447C10.7715 1.55343 10.1948 1.25014 9.60327 1.25014Z" fill="#7EB3FF"/>
<path id="Vector_14" d="M11.0859 4.49543L9.98926 5.12061L11.8843 8.36151L12.981 7.73633L11.0859 4.49543Z" fill="#7EB3FF"/>
</g>
</g>
<path id="Vector_15" d="M16.2876 14.8785C17.5467 14.585 18.3265 13.3394 18.0293 12.0962C17.7321 10.853 16.4705 10.083 15.2114 10.3764C13.9523 10.6698 13.1725 11.9155 13.4697 13.1587C13.7669 14.4019 15.0285 15.1719 16.2876 14.8785Z" fill="#A1F0C4"/>
<path id="Vector_16" d="M18.0915 16.1216H13.4077C12.2216 16.1216 11.2267 16.8886 10.876 17.9443C12.0323 19.3346 13.7852 20.2229 15.7501 20.2229C17.715 20.2229 19.4679 19.3355 20.6232 17.9443C20.2725 16.8886 19.2776 16.1216 18.0915 16.1216Z" fill="#A1F0C4"/>
</g>
<defs>
<clipPath id="clip0_1_7202">
<rect width="31.5" height="28" fill="white"/>
</clipPath>
</defs>
</svg>
