<svg width="22" height="22" viewBox="0 0 22 22" fill="none" xmlns="http://www.w3.org/2000/svg">
<path d="M4.125 20.1667C3.75833 20.1667 3.4375 20.0292 3.1625 19.7542C2.8875 19.4792 2.75 19.1583 2.75 18.7917V14.2542L5.84375 10.8396L6.82917 11.825L4.125 14.7812H17.875L15.3313 11.8937L16.3167 10.9083L19.25 14.2542V18.7917C19.25 19.1583 19.1125 19.4792 18.8375 19.7542C18.5625 20.0292 18.2417 20.1667 17.875 20.1667H4.125ZM4.125 18.7917H17.875V16.1562H4.125V18.7917ZM10.1292 13.1771L6.48542 9.53332C6.19514 9.24304 6.06528 8.91839 6.09583 8.55936C6.12639 8.20033 6.27917 7.88332 6.55417 7.60832L11.4125 2.74998C11.6722 2.49026 11.9931 2.35658 12.375 2.34894C12.7569 2.3413 13.0854 2.47498 13.3604 2.74998L17.0042 6.39373C17.2639 6.65346 17.3976 6.96283 17.4052 7.32186C17.4128 7.68089 17.2639 8.01318 16.9583 8.31873L12.1 13.1771C11.8403 13.4368 11.5194 13.5743 11.1375 13.5896C10.7556 13.6048 10.4194 13.4673 10.1292 13.1771ZM15.8354 7.28748L12.3979 3.84998L7.63125 8.61665L11.0688 12.0542L15.8354 7.28748Z" fill="#A1F0C4"/>
</svg>
